<?xml version="1.0" encoding="UTF-8" standalone="no"?>
<!DOCTYPE svg PUBLIC "-//W3C//DTD SVG 1.1//EN"
 "http://www.w3.org/Graphics/SVG/1.1/DTD/svg11.dtd">
<!-- Generated by graphviz version 12.2.1 (20250203.1708)
 -->
<!-- Title: snakemake_dag Pages: 1 -->
<svg width="3214pt" height="1412pt"
 viewBox="0.00 0.00 3214.25 1412.00" xmlns="http://www.w3.org/2000/svg" xmlns:xlink="http://www.w3.org/1999/xlink">
<g id="graph0" class="graph" transform="scale(1 1) rotate(0) translate(4 1408)">
<title>snakemake_dag</title>
<polygon fill="white" stroke="none" points="-4,4 -4,-1408 3210.25,-1408 3210.25,4 -4,4"/>
<!-- 0 -->
<g id="node1" class="node">
<title>0</title>
<path fill="none" stroke="#5682d8" stroke-width="2" d="M1193.38,-36C1193.38,-36 1163.38,-36 1163.38,-36 1157.38,-36 1151.38,-30 1151.38,-24 1151.38,-24 1151.38,-12 1151.38,-12 1151.38,-6 1157.38,0 1163.38,0 1163.38,0 1193.38,0 1193.38,0 1199.38,0 1205.38,-6 1205.38,-12 1205.38,-12 1205.38,-24 1205.38,-24 1205.38,-30 1199.38,-36 1193.38,-36"/>
<text text-anchor="middle" x="1178.38" y="-14.88" font-family="sans" font-size="10.00">all</text>
</g>
<!-- 1 -->
<g id="node2" class="node">
<title>1</title>
<path fill="none" stroke="#56d8b9" stroke-width="2" d="M1298.12,-180C1298.12,-180 1058.62,-180 1058.62,-180 1052.62,-180 1046.62,-174 1046.62,-168 1046.62,-168 1046.62,-156 1046.62,-156 1046.62,-150 1052.62,-144 1058.62,-144 1058.62,-144 1298.12,-144 1298.12,-144 1304.12,-144 1310.12,-150 1310.12,-156 1310.12,-156 1310.12,-168 1310.12,-168 1310.12,-174 1304.12,-180 1298.12,-180"/>
<text text-anchor="middle" x="1178.38" y="-158.88" font-family="sans" font-size="10.00">dummy_canonicalizing_and_downstream_analysis</text>
</g>
<!-- 1&#45;&gt;0 -->
<g id="edge1" class="edge">
<title>1&#45;&gt;0</title>
<path fill="none" stroke="grey" stroke-width="2" d="M1160.22,-143.12C1151.83,-133.58 1142.77,-121.12 1138.38,-108 1133.29,-92.83 1133.29,-87.17 1138.38,-72 1141.36,-63.08 1146.51,-54.47 1152.13,-46.87"/>
<polygon fill="grey" stroke="grey" stroke-width="2" points="1154.74,-49.2 1158.32,-39.23 1149.3,-44.8 1154.74,-49.2"/>
</g>
<!-- 35 -->
<g id="node36" class="node">
<title>35</title>
<path fill="none" stroke="#c6d856" stroke-width="2" d="M1315.5,-108C1315.5,-108 1159.25,-108 1159.25,-108 1153.25,-108 1147.25,-102 1147.25,-96 1147.25,-96 1147.25,-84 1147.25,-84 1147.25,-78 1153.25,-72 1159.25,-72 1159.25,-72 1315.5,-72 1315.5,-72 1321.5,-72 1327.5,-78 1327.5,-84 1327.5,-84 1327.5,-96 1327.5,-96 1327.5,-102 1321.5,-108 1315.5,-108"/>
<text text-anchor="middle" x="1237.38" y="-86.88" font-family="sans" font-size="10.00">results_analysis_output_validator</text>
</g>
<!-- 1&#45;&gt;35 -->
<g id="edge54" class="edge">
<title>1&#45;&gt;35</title>
<path fill="none" stroke="grey" stroke-width="2" d="M1193.26,-143.34C1199.57,-135.85 1207.08,-126.95 1214.09,-118.63"/>
<polygon fill="grey" stroke="grey" stroke-width="2" points="1216.57,-121.12 1220.34,-111.22 1211.21,-116.61 1216.57,-121.12"/>
</g>
<!-- 2 -->
<g id="node3" class="node">
<title>2</title>
<path fill="none" stroke="#56d882" stroke-width="2" d="M1153.38,-324C1153.38,-324 1035.38,-324 1035.38,-324 1029.38,-324 1023.38,-318 1023.38,-312 1023.38,-312 1023.38,-300 1023.38,-300 1023.38,-294 1029.38,-288 1035.38,-288 1035.38,-288 1153.38,-288 1153.38,-288 1159.38,-288 1165.38,-294 1165.38,-300 1165.38,-300 1165.38,-312 1165.38,-312 1165.38,-318 1159.38,-324 1153.38,-324"/>
<text text-anchor="middle" x="1094.38" y="-302.88" font-family="sans" font-size="10.00">default_updating_clusters</text>
</g>
<!-- 2&#45;&gt;1 -->
<g id="edge3" class="edge">
<title>2&#45;&gt;1</title>
<path fill="none" stroke="grey" stroke-width="2" d="M1166.12,-301.98C1242.29,-297.08 1355.37,-284.43 1382.38,-252 1410.47,-218.26 1373.43,-196.94 1323.55,-183.66"/>
<polygon fill="grey" stroke="grey" stroke-width="2" points="1324.46,-180.28 1313.91,-181.26 1322.77,-187.07 1324.46,-180.28"/>
</g>
<!-- 34 -->
<g id="node35" class="node">
<title>34</title>
<path fill="none" stroke="#59d856" stroke-width="2" d="M953.25,-252C953.25,-252 621.5,-252 621.5,-252 615.5,-252 609.5,-246 609.5,-240 609.5,-240 609.5,-228 609.5,-228 609.5,-222 615.5,-216 621.5,-216 621.5,-216 953.25,-216 953.25,-216 959.25,-216 965.25,-222 965.25,-228 965.25,-228 965.25,-240 965.25,-240 965.25,-246 959.25,-252 953.25,-252"/>
<text text-anchor="middle" x="787.38" y="-230.88" font-family="sans" font-size="10.00">dummy_canonicalizing_and_downstream_analysis_clusters_validator</text>
</g>
<!-- 2&#45;&gt;34 -->
<g id="edge53" class="edge">
<title>2&#45;&gt;34</title>
<path fill="none" stroke="grey" stroke-width="2" d="M1022.4,-288.59C979.55,-278.82 924.76,-266.33 878.87,-255.86"/>
<polygon fill="grey" stroke="grey" stroke-width="2" points="879.65,-252.45 869.13,-253.64 878.1,-259.28 879.65,-252.45"/>
</g>
<!-- 3 -->
<g id="node4" class="node">
<title>3</title>
<path fill="none" stroke="#80d856" stroke-width="2" d="M1088.5,-468C1088.5,-468 980.25,-468 980.25,-468 974.25,-468 968.25,-462 968.25,-456 968.25,-456 968.25,-444 968.25,-444 968.25,-438 974.25,-432 980.25,-432 980.25,-432 1088.5,-432 1088.5,-432 1094.5,-432 1100.5,-438 1100.5,-444 1100.5,-444 1100.5,-456 1100.5,-456 1100.5,-462 1094.5,-468 1088.5,-468"/>
<text text-anchor="middle" x="1034.38" y="-446.88" font-family="sans" font-size="10.00">splink_links_to_clusters</text>
</g>
<!-- 3&#45;&gt;2 -->
<g id="edge6" class="edge">
<title>3&#45;&gt;2</title>
<path fill="none" stroke="grey" stroke-width="2" d="M1101.5,-440.56C1154.56,-432.34 1222.44,-417.87 1239.38,-396 1249.17,-383.35 1248.54,-373.11 1239.38,-360 1225.12,-339.61 1202.14,-327.04 1178.63,-319.3"/>
<polygon fill="grey" stroke="grey" stroke-width="2" points="1179.82,-316 1169.24,-316.53 1177.85,-322.71 1179.82,-316"/>
</g>
<!-- 32 -->
<g id="node33" class="node">
<title>32</title>
<path fill="none" stroke="#d6d856" stroke-width="2" d="M928.25,-396C928.25,-396 692.5,-396 692.5,-396 686.5,-396 680.5,-390 680.5,-384 680.5,-384 680.5,-372 680.5,-372 680.5,-366 686.5,-360 692.5,-360 692.5,-360 928.25,-360 928.25,-360 934.25,-360 940.25,-366 940.25,-372 940.25,-372 940.25,-384 940.25,-384 940.25,-390 934.25,-396 928.25,-396"/>
<text text-anchor="middle" x="810.38" y="-374.88" font-family="sans" font-size="10.00">default_updating_clusters_new_clusters_validator</text>
</g>
<!-- 3&#45;&gt;32 -->
<g id="edge52" class="edge">
<title>3&#45;&gt;32</title>
<path fill="none" stroke="grey" stroke-width="2" d="M976.98,-431.06C947.34,-421.8 910.95,-410.43 879.74,-400.68"/>
<polygon fill="grey" stroke="grey" stroke-width="2" points="881.1,-397.43 870.51,-397.79 879.01,-404.12 881.1,-397.43"/>
</g>
<!-- 4 -->
<g id="node5" class="node">
<title>4</title>
<path fill="none" stroke="#56d863" stroke-width="2" d="M1088.12,-612C1088.12,-612 980.62,-612 980.62,-612 974.62,-612 968.62,-606 968.62,-600 968.62,-600 968.62,-588 968.62,-588 968.62,-582 974.62,-576 980.62,-576 980.62,-576 1088.12,-576 1088.12,-576 1094.12,-576 1100.12,-582 1100.12,-588 1100.12,-588 1100.12,-600 1100.12,-600 1100.12,-606 1094.12,-612 1088.12,-612"/>
<text text-anchor="middle" x="1034.38" y="-590.88" font-family="sans" font-size="10.00">splink_evaluating_pairs</text>
</g>
<!-- 4&#45;&gt;3 -->
<g id="edge9" class="edge">
<title>4&#45;&gt;3</title>
<path fill="none" stroke="grey" stroke-width="2" d="M1012.62,-575.23C1002.91,-565.89 992.52,-553.57 987.38,-540 981.7,-525.04 981.7,-518.96 987.38,-504 990.96,-494.57 997.07,-485.74 1003.72,-478.09"/>
<polygon fill="grey" stroke="grey" stroke-width="2" points="1006.15,-480.61 1010.53,-470.96 1001.09,-475.78 1006.15,-480.61"/>
</g>
<!-- 30 -->
<g id="node31" class="node">
<title>30</title>
<path fill="none" stroke="#56a9d8" stroke-width="2" d="M1194.12,-540C1194.12,-540 1008.62,-540 1008.62,-540 1002.62,-540 996.62,-534 996.62,-528 996.62,-528 996.62,-516 996.62,-516 996.62,-510 1002.62,-504 1008.62,-504 1008.62,-504 1194.12,-504 1194.12,-504 1200.12,-504 1206.12,-510 1206.12,-516 1206.12,-516 1206.12,-528 1206.12,-528 1206.12,-534 1200.12,-540 1194.12,-540"/>
<text text-anchor="middle" x="1101.38" y="-518.88" font-family="sans" font-size="10.00">splink_links_to_clusters_links_validator</text>
</g>
<!-- 4&#45;&gt;30 -->
<g id="edge51" class="edge">
<title>4&#45;&gt;30</title>
<path fill="none" stroke="grey" stroke-width="2" d="M1051.28,-575.34C1058.61,-567.69 1067.34,-558.56 1075.46,-550.08"/>
<polygon fill="grey" stroke="grey" stroke-width="2" points="1077.76,-552.73 1082.15,-543.09 1072.7,-547.89 1077.76,-552.73"/>
</g>
<!-- 5 -->
<g id="node6" class="node">
<title>5</title>
<path fill="none" stroke="#56b9d8" stroke-width="2" d="M999.12,-900C999.12,-900 885.62,-900 885.62,-900 879.62,-900 873.62,-894 873.62,-888 873.62,-888 873.62,-876 873.62,-876 873.62,-870 879.62,-864 885.62,-864 885.62,-864 999.12,-864 999.12,-864 1005.12,-864 1011.12,-870 1011.12,-876 1011.12,-876 1011.12,-888 1011.12,-888 1011.12,-894 1005.12,-900 999.12,-900"/>
<text text-anchor="middle" x="942.38" y="-878.88" font-family="sans" font-size="10.00">default_clusters_to_links</text>
</g>
<!-- 5&#45;&gt;4 -->
<g id="edge11" class="edge">
<title>5&#45;&gt;4</title>
<path fill="none" stroke="grey" stroke-width="2" d="M918.49,-863.15C882.18,-833.72 820.14,-772.99 848.38,-720 874.38,-671.19 928.84,-638.05 972.15,-618.22"/>
<polygon fill="grey" stroke="grey" stroke-width="2" points="973.53,-621.44 981.27,-614.2 970.71,-615.04 973.53,-621.44"/>
</g>
<!-- 7 -->
<g id="node8" class="node">
<title>7</title>
<path fill="none" stroke="#56d8d8" stroke-width="2" d="M1294.25,-756C1294.25,-756 1160.5,-756 1160.5,-756 1154.5,-756 1148.5,-750 1148.5,-744 1148.5,-744 1148.5,-732 1148.5,-732 1148.5,-726 1154.5,-720 1160.5,-720 1160.5,-720 1294.25,-720 1294.25,-720 1300.25,-720 1306.25,-726 1306.25,-732 1306.25,-732 1306.25,-744 1306.25,-744 1306.25,-750 1300.25,-756 1294.25,-756"/>
<text text-anchor="middle" x="1227.38" y="-734.88" font-family="sans" font-size="10.00">splink_blocking_and_filtering</text>
</g>
<!-- 5&#45;&gt;7 -->
<g id="edge16" class="edge">
<title>5&#45;&gt;7</title>
<path fill="none" stroke="grey" stroke-width="2" d="M945.04,-863.04C949.04,-842.67 958.59,-809.95 980.38,-792 992.61,-781.92 1069.84,-766.31 1134.73,-754.64"/>
<polygon fill="grey" stroke="grey" stroke-width="2" points="1135.31,-758.1 1144.54,-752.9 1134.08,-751.2 1135.31,-758.1"/>
</g>
<!-- 26 -->
<g id="node27" class="node">
<title>26</title>
<path fill="none" stroke="#bed856" stroke-width="2" d="M1249.62,-828C1249.62,-828 1001.12,-828 1001.12,-828 995.12,-828 989.12,-822 989.12,-816 989.12,-816 989.12,-804 989.12,-804 989.12,-798 995.12,-792 1001.12,-792 1001.12,-792 1249.62,-792 1249.62,-792 1255.62,-792 1261.62,-798 1261.62,-804 1261.62,-804 1261.62,-816 1261.62,-816 1261.62,-822 1255.62,-828 1249.62,-828"/>
<text text-anchor="middle" x="1125.38" y="-806.88" font-family="sans" font-size="10.00">splink_blocking_and_filtering_known_links_validator</text>
</g>
<!-- 5&#45;&gt;26 -->
<g id="edge47" class="edge">
<title>5&#45;&gt;26</title>
<path fill="none" stroke="grey" stroke-width="2" d="M989.03,-863.15C1012.6,-854.14 1041.44,-843.11 1066.52,-833.51"/>
<polygon fill="grey" stroke="grey" stroke-width="2" points="1067.57,-836.86 1075.66,-830.02 1065.07,-830.32 1067.57,-836.86"/>
</g>
<!-- 28 -->
<g id="node29" class="node">
<title>28</title>
<path fill="none" stroke="#56d892" stroke-width="2" d="M1091.5,-756C1091.5,-756 869.25,-756 869.25,-756 863.25,-756 857.25,-750 857.25,-744 857.25,-744 857.25,-732 857.25,-732 857.25,-726 863.25,-720 869.25,-720 869.25,-720 1091.5,-720 1091.5,-720 1097.5,-720 1103.5,-726 1103.5,-732 1103.5,-732 1103.5,-744 1103.5,-744 1103.5,-750 1097.5,-756 1091.5,-756"/>
<text text-anchor="middle" x="980.38" y="-734.88" font-family="sans" font-size="10.00">splink_evaluating_pairs_known_links_validator</text>
</g>
<!-- 5&#45;&gt;28 -->
<g id="edge49" class="edge">
<title>5&#45;&gt;28</title>
<path fill="none" stroke="grey" stroke-width="2" d="M940.82,-863.14C939.82,-844.83 939.86,-815.75 947.38,-792 950.02,-783.63 954.3,-775.25 958.91,-767.7"/>
<polygon fill="grey" stroke="grey" stroke-width="2" points="961.72,-769.79 964.32,-759.52 955.89,-765.93 961.72,-769.79"/>
</g>
<!-- 6 -->
<g id="node7" class="node">
<title>6</title>
<path fill="none" stroke="#56d873" stroke-width="2" d="M1064,-972C1064,-972 820.75,-972 820.75,-972 814.75,-972 808.75,-966 808.75,-960 808.75,-960 808.75,-948 808.75,-948 808.75,-942 814.75,-936 820.75,-936 820.75,-936 1064,-936 1064,-936 1070,-936 1076,-942 1076,-948 1076,-948 1076,-960 1076,-960 1076,-966 1070,-972 1064,-972"/>
<text text-anchor="middle" x="942.38" y="-950.88" font-family="sans" font-size="10.00">default_clusters_to_links_known_clusters_validator</text>
</g>
<!-- 6&#45;&gt;5 -->
<g id="edge15" class="edge">
<title>6&#45;&gt;5</title>
<path fill="none" stroke="grey" stroke-width="2" d="M942.38,-935.34C942.38,-928.75 942.38,-921.08 942.38,-913.67"/>
<polygon fill="grey" stroke="grey" stroke-width="2" points="945.88,-913.93 942.38,-903.93 938.88,-913.93 945.88,-913.93"/>
</g>
<!-- 7&#45;&gt;4 -->
<g id="edge12" class="edge">
<title>7&#45;&gt;4</title>
<path fill="none" stroke="grey" stroke-width="2" d="M1231.67,-719.14C1235.28,-699.47 1237.56,-667.97 1221.38,-648 1207.33,-630.66 1157.88,-617.09 1113.37,-608.03"/>
<polygon fill="grey" stroke="grey" stroke-width="2" points="1114.13,-604.61 1103.64,-606.11 1112.78,-611.48 1114.13,-604.61"/>
</g>
<!-- 29 -->
<g id="node30" class="node">
<title>29</title>
<path fill="none" stroke="#d8bc56" stroke-width="2" d="M1199.88,-684C1199.88,-684 1006.88,-684 1006.88,-684 1000.88,-684 994.88,-678 994.88,-672 994.88,-672 994.88,-660 994.88,-660 994.88,-654 1000.88,-648 1006.88,-648 1006.88,-648 1199.88,-648 1199.88,-648 1205.88,-648 1211.88,-654 1211.88,-660 1211.88,-660 1211.88,-672 1211.88,-672 1211.88,-678 1205.88,-684 1199.88,-684"/>
<text text-anchor="middle" x="1103.38" y="-662.88" font-family="sans" font-size="10.00">splink_evaluating_pairs_blocks_validator</text>
</g>
<!-- 7&#45;&gt;29 -->
<g id="edge50" class="edge">
<title>7&#45;&gt;29</title>
<path fill="none" stroke="grey" stroke-width="2" d="M1195.76,-719.15C1180.61,-710.6 1162.23,-700.22 1145.87,-690.99"/>
<polygon fill="grey" stroke="grey" stroke-width="2" points="1147.99,-688.17 1137.56,-686.3 1144.55,-694.26 1147.99,-688.17"/>
</g>
<!-- 8 -->
<g id="node9" class="node">
<title>8</title>
<path fill="none" stroke="#56a2d8" stroke-width="2" d="M1427.75,-900C1427.75,-900 1303,-900 1303,-900 1297,-900 1291,-894 1291,-888 1291,-888 1291,-876 1291,-876 1291,-870 1297,-864 1303,-864 1303,-864 1427.75,-864 1427.75,-864 1433.75,-864 1439.75,-870 1439.75,-876 1439.75,-876 1439.75,-888 1439.75,-888 1439.75,-894 1433.75,-900 1427.75,-900"/>
<text text-anchor="middle" x="1365.38" y="-878.88" font-family="sans" font-size="10.00">default_schema_alignment</text>
</g>
<!-- 8&#45;&gt;7 -->
<g id="edge17" class="edge">
<title>8&#45;&gt;7</title>
<path fill="none" stroke="grey" stroke-width="2" d="M1345.21,-863C1334.12,-852.92 1320.25,-840.01 1308.38,-828 1288.51,-807.92 1267.03,-784.22 1251.19,-766.33"/>
<polygon fill="grey" stroke="grey" stroke-width="2" points="1254.02,-764.26 1244.79,-759.07 1248.77,-768.88 1254.02,-764.26"/>
</g>
<!-- 27 -->
<g id="node28" class="node">
<title>27</title>
<path fill="none" stroke="#56c9d8" stroke-width="2" d="M1553.25,-828C1553.25,-828 1329.5,-828 1329.5,-828 1323.5,-828 1317.5,-822 1317.5,-816 1317.5,-816 1317.5,-804 1317.5,-804 1317.5,-798 1323.5,-792 1329.5,-792 1329.5,-792 1553.25,-792 1553.25,-792 1559.25,-792 1565.25,-798 1565.25,-804 1565.25,-804 1565.25,-816 1565.25,-816 1565.25,-822 1559.25,-828 1553.25,-828"/>
<text text-anchor="middle" x="1441.38" y="-806.88" font-family="sans" font-size="10.00">splink_blocking_and_filtering_records_validator</text>
</g>
<!-- 8&#45;&gt;27 -->
<g id="edge48" class="edge">
<title>8&#45;&gt;27</title>
<path fill="none" stroke="grey" stroke-width="2" d="M1384.55,-863.34C1393.04,-855.52 1403.2,-846.16 1412.57,-837.53"/>
<polygon fill="grey" stroke="grey" stroke-width="2" points="1414.73,-840.3 1419.71,-830.95 1409.99,-835.15 1414.73,-840.3"/>
</g>
<!-- 9 -->
<g id="node10" class="node">
<title>9</title>
<path fill="none" stroke="#d86656" stroke-width="2" d="M1371.5,-1044C1371.5,-1044 951.25,-1044 951.25,-1044 945.25,-1044 939.25,-1038 939.25,-1032 939.25,-1032 939.25,-1020 939.25,-1020 939.25,-1014 945.25,-1008 951.25,-1008 951.25,-1008 1371.5,-1008 1371.5,-1008 1377.5,-1008 1383.5,-1014 1383.5,-1020 1383.5,-1020 1383.5,-1032 1383.5,-1032 1383.5,-1038 1377.5,-1044 1371.5,-1044"/>
<text text-anchor="middle" x="1161.38" y="-1022.88" font-family="sans" font-size="10.00">pre&#45;processing_parallel_split_1_pre&#45;processing_parallel_split_1_dummy_pre&#45;processing</text>
</g>
<!-- 9&#45;&gt;8 -->
<g id="edge20" class="edge">
<title>9&#45;&gt;8</title>
<path fill="none" stroke="grey" stroke-width="2" d="M1172.19,-1007.02C1184.89,-987.24 1207.65,-955.66 1234.38,-936 1251.31,-923.54 1271.6,-913.48 1291.08,-905.62"/>
<polygon fill="grey" stroke="grey" stroke-width="2" points="1292.18,-908.95 1300.25,-902.09 1289.66,-902.41 1292.18,-908.95"/>
</g>
<!-- 25 -->
<g id="node26" class="node">
<title>25</title>
<path fill="none" stroke="#d89c56" stroke-width="2" d="M1475.75,-972C1475.75,-972 1255,-972 1255,-972 1249,-972 1243,-966 1243,-960 1243,-960 1243,-948 1243,-948 1243,-942 1249,-936 1255,-936 1255,-936 1475.75,-936 1475.75,-936 1481.75,-936 1487.75,-942 1487.75,-948 1487.75,-948 1487.75,-960 1487.75,-960 1487.75,-966 1481.75,-972 1475.75,-972"/>
<text text-anchor="middle" x="1365.38" y="-950.88" font-family="sans" font-size="10.00">default_schema_alignment_datasets_validator</text>
</g>
<!-- 9&#45;&gt;25 -->
<g id="edge45" class="edge">
<title>9&#45;&gt;25</title>
<path fill="none" stroke="grey" stroke-width="2" d="M1213.65,-1007.06C1240.28,-997.93 1272.9,-986.73 1301.06,-977.07"/>
<polygon fill="grey" stroke="grey" stroke-width="2" points="1302.05,-980.43 1310.38,-973.87 1299.78,-973.81 1302.05,-980.43"/>
</g>
<!-- 10 -->
<g id="node11" class="node">
<title>10</title>
<path fill="none" stroke="#afd856" stroke-width="2" d="M1361.25,-1188C1361.25,-1188 831.5,-1188 831.5,-1188 825.5,-1188 819.5,-1182 819.5,-1176 819.5,-1176 819.5,-1164 819.5,-1164 819.5,-1158 825.5,-1152 831.5,-1152 831.5,-1152 1361.25,-1152 1361.25,-1152 1367.25,-1152 1373.25,-1158 1373.25,-1164 1373.25,-1164 1373.25,-1176 1373.25,-1176 1373.25,-1182 1367.25,-1188 1361.25,-1188"/>
<text text-anchor="middle" x="1096.38" y="-1166.88" font-family="sans" font-size="10.00">determining_exclusions_and_removing_records_parallel_split_1_removing_records_default_removing_records</text>
</g>
<!-- 10&#45;&gt;9 -->
<g id="edge23" class="edge">
<title>10&#45;&gt;9</title>
<path fill="none" stroke="grey" stroke-width="2" d="M868.85,-1151.01C818.4,-1138.2 788.07,-1116.53 819.38,-1080 835.59,-1061.07 877.22,-1048.85 926.09,-1040.97"/>
<polygon fill="grey" stroke="grey" stroke-width="2" points="926.3,-1044.48 935.66,-1039.51 925.25,-1037.56 926.3,-1044.48"/>
</g>
<!-- 22 -->
<g id="node23" class="node">
<title>22</title>
<path fill="none" stroke="#5692d8" stroke-width="2" d="M1351.88,-1116C1351.88,-1116 840.88,-1116 840.88,-1116 834.88,-1116 828.88,-1110 828.88,-1104 828.88,-1104 828.88,-1092 828.88,-1092 828.88,-1086 834.88,-1080 840.88,-1080 840.88,-1080 1351.88,-1080 1351.88,-1080 1357.88,-1080 1363.88,-1086 1363.88,-1092 1363.88,-1092 1363.88,-1104 1363.88,-1104 1363.88,-1110 1357.88,-1116 1351.88,-1116"/>
<text text-anchor="middle" x="1096.38" y="-1094.88" font-family="sans" font-size="10.00">pre&#45;processing_parallel_split_1_pre&#45;processing_parallel_split_1_dummy_pre&#45;processing_dataset_validator</text>
</g>
<!-- 10&#45;&gt;22 -->
<g id="edge38" class="edge">
<title>10&#45;&gt;22</title>
<path fill="none" stroke="grey" stroke-width="2" d="M1096.38,-1151.34C1096.38,-1144.75 1096.38,-1137.08 1096.38,-1129.67"/>
<polygon fill="grey" stroke="grey" stroke-width="2" points="1099.88,-1129.93 1096.38,-1119.93 1092.88,-1129.93 1099.88,-1129.93"/>
</g>
<!-- 23 -->
<g id="node24" class="node">
<title>23</title>
<path fill="none" stroke="#68d856" stroke-width="2" d="M1833.5,-1044C1833.5,-1044 1413.25,-1044 1413.25,-1044 1407.25,-1044 1401.25,-1038 1401.25,-1032 1401.25,-1032 1401.25,-1020 1401.25,-1020 1401.25,-1014 1407.25,-1008 1413.25,-1008 1413.25,-1008 1833.5,-1008 1833.5,-1008 1839.5,-1008 1845.5,-1014 1845.5,-1020 1845.5,-1020 1845.5,-1032 1845.5,-1032 1845.5,-1038 1839.5,-1044 1833.5,-1044"/>
<text text-anchor="middle" x="1623.38" y="-1022.88" font-family="sans" font-size="10.00">pre&#45;processing_parallel_split_2_pre&#45;processing_parallel_split_2_dummy_pre&#45;processing</text>
</g>
<!-- 10&#45;&gt;23 -->
<g id="edge40" class="edge">
<title>10&#45;&gt;23</title>
<path fill="none" stroke="grey" stroke-width="2" d="M1270.09,-1151.07C1305.48,-1143.25 1341.57,-1132.04 1373.38,-1116 1394.44,-1105.38 1391.63,-1091.22 1412.38,-1080 1437.99,-1066.15 1467.31,-1055.83 1495.78,-1048.18"/>
<polygon fill="grey" stroke="grey" stroke-width="2" points="1496.6,-1051.58 1505.42,-1045.71 1494.86,-1044.8 1496.6,-1051.58"/>
</g>
<!-- 24 -->
<g id="node25" class="node">
<title>24</title>
<path fill="none" stroke="#56d8a2" stroke-width="2" d="M1943.88,-1116C1943.88,-1116 1432.88,-1116 1432.88,-1116 1426.88,-1116 1420.88,-1110 1420.88,-1104 1420.88,-1104 1420.88,-1092 1420.88,-1092 1420.88,-1086 1426.88,-1080 1432.88,-1080 1432.88,-1080 1943.88,-1080 1943.88,-1080 1949.88,-1080 1955.88,-1086 1955.88,-1092 1955.88,-1092 1955.88,-1104 1955.88,-1104 1955.88,-1110 1949.88,-1116 1943.88,-1116"/>
<text text-anchor="middle" x="1688.38" y="-1094.88" font-family="sans" font-size="10.00">pre&#45;processing_parallel_split_2_pre&#45;processing_parallel_split_2_dummy_pre&#45;processing_dataset_validator</text>
</g>
<!-- 10&#45;&gt;24 -->
<g id="edge43" class="edge">
<title>10&#45;&gt;24</title>
<path fill="none" stroke="grey" stroke-width="2" d="M1248.45,-1151.02C1332.6,-1141.07 1437.28,-1128.69 1523.41,-1118.51"/>
<polygon fill="grey" stroke="grey" stroke-width="2" points="1523.72,-1121.99 1533.24,-1117.34 1522.9,-1115.04 1523.72,-1121.99"/>
</g>
<!-- 11 -->
<g id="node12" class="node">
<title>11</title>
<path fill="none" stroke="#5663d8" stroke-width="2" d="M997.75,-1332C997.75,-1332 411,-1332 411,-1332 405,-1332 399,-1326 399,-1320 399,-1320 399,-1308 399,-1308 399,-1302 405,-1296 411,-1296 411,-1296 997.75,-1296 997.75,-1296 1003.75,-1296 1009.75,-1302 1009.75,-1308 1009.75,-1308 1009.75,-1320 1009.75,-1320 1009.75,-1326 1003.75,-1332 997.75,-1332"/>
<text text-anchor="middle" x="704.38" y="-1310.88" font-family="sans" font-size="10.00">determining_exclusions_and_removing_records_parallel_split_1_determining_exclusions_default_determining_exclusions</text>
</g>
<!-- 11&#45;&gt;10 -->
<g id="edge26" class="edge">
<title>11&#45;&gt;10</title>
<path fill="none" stroke="grey" stroke-width="2" d="M471.89,-1295.07C432,-1287.26 398.99,-1276.06 385.38,-1260 375.03,-1247.79 374.49,-1235.73 385.38,-1224 414.69,-1192.42 622.42,-1179.52 805.83,-1174.31"/>
<polygon fill="grey" stroke="grey" stroke-width="2" points="805.79,-1177.81 815.69,-1174.04 805.6,-1170.82 805.79,-1177.81"/>
</g>
<!-- 15 -->
<g id="node16" class="node">
<title>15</title>
<path fill="none" stroke="#d8cb56" stroke-width="2" d="M1760.25,-1260C1760.25,-1260 1104.5,-1260 1104.5,-1260 1098.5,-1260 1092.5,-1254 1092.5,-1248 1092.5,-1248 1092.5,-1236 1092.5,-1236 1092.5,-1230 1098.5,-1224 1104.5,-1224 1104.5,-1224 1760.25,-1224 1760.25,-1224 1766.25,-1224 1772.25,-1230 1772.25,-1236 1772.25,-1236 1772.25,-1248 1772.25,-1248 1772.25,-1254 1766.25,-1260 1760.25,-1260"/>
<text text-anchor="middle" x="1432.38" y="-1238.88" font-family="sans" font-size="10.00">determining_exclusions_and_removing_records_parallel_split_1_removing_records_default_removing_records_ids_to_remove_validator</text>
</g>
<!-- 11&#45;&gt;15 -->
<g id="edge31" class="edge">
<title>11&#45;&gt;15</title>
<path fill="none" stroke="grey" stroke-width="2" d="M891.38,-1295.02C995.83,-1284.98 1125.97,-1272.46 1232.43,-1262.23"/>
<polygon fill="grey" stroke="grey" stroke-width="2" points="1232.67,-1265.72 1242.28,-1261.28 1232,-1258.75 1232.67,-1265.72"/>
</g>
<!-- 12 -->
<g id="node13" class="node">
<title>12</title>
<path fill="none" stroke="#56d8c9" stroke-width="2" d="M724.75,-1404C724.75,-1404 12,-1404 12,-1404 6,-1404 0,-1398 0,-1392 0,-1392 0,-1380 0,-1380 0,-1374 6,-1368 12,-1368 12,-1368 724.75,-1368 724.75,-1368 730.75,-1368 736.75,-1374 736.75,-1380 736.75,-1380 736.75,-1392 736.75,-1392 736.75,-1398 730.75,-1404 724.75,-1404"/>
<text text-anchor="middle" x="368.38" y="-1382.88" font-family="sans" font-size="10.00">determining_exclusions_and_removing_records_parallel_split_1_determining_exclusions_default_determining_exclusions_input_datasets_validator</text>
</g>
<!-- 12&#45;&gt;11 -->
<g id="edge29" class="edge">
<title>12&#45;&gt;11</title>
<path fill="none" stroke="grey" stroke-width="2" d="M454.47,-1367.06C500.61,-1357.45 557.66,-1345.57 605.6,-1335.58"/>
<polygon fill="grey" stroke="grey" stroke-width="2" points="606.18,-1339.03 615.25,-1333.57 604.75,-1332.18 606.18,-1339.03"/>
</g>
<!-- 13 -->
<g id="node14" class="node">
<title>13</title>
<path fill="none" stroke="#8fd856" stroke-width="2" d="M1483.62,-1404C1483.62,-1404 767.12,-1404 767.12,-1404 761.12,-1404 755.12,-1398 755.12,-1392 755.12,-1392 755.12,-1380 755.12,-1380 755.12,-1374 761.12,-1368 767.12,-1368 767.12,-1368 1483.62,-1368 1483.62,-1368 1489.62,-1368 1495.62,-1374 1495.62,-1380 1495.62,-1380 1495.62,-1392 1495.62,-1392 1495.62,-1398 1489.62,-1404 1483.62,-1404"/>
<text text-anchor="middle" x="1125.38" y="-1382.88" font-family="sans" font-size="10.00">determining_exclusions_and_removing_records_parallel_split_1_determining_exclusions_default_determining_exclusions_known_clusters_validator</text>
</g>
<!-- 13&#45;&gt;11 -->
<g id="edge30" class="edge">
<title>13&#45;&gt;11</title>
<path fill="none" stroke="grey" stroke-width="2" d="M1017.23,-1367.02C958.55,-1357.26 885.84,-1345.17 825.29,-1335.1"/>
<polygon fill="grey" stroke="grey" stroke-width="2" points="825.99,-1331.67 815.55,-1333.48 824.84,-1338.58 825.99,-1331.67"/>
</g>
<!-- 14 -->
<g id="node15" class="node">
<title>14</title>
<path fill="none" stroke="#d8ac56" stroke-width="2" d="M1062.25,-1260C1062.25,-1260 406.5,-1260 406.5,-1260 400.5,-1260 394.5,-1254 394.5,-1248 394.5,-1248 394.5,-1236 394.5,-1236 394.5,-1230 400.5,-1224 406.5,-1224 406.5,-1224 1062.25,-1224 1062.25,-1224 1068.25,-1224 1074.25,-1230 1074.25,-1236 1074.25,-1236 1074.25,-1248 1074.25,-1248 1074.25,-1254 1068.25,-1260 1062.25,-1260"/>
<text text-anchor="middle" x="734.38" y="-1238.88" font-family="sans" font-size="10.00">determining_exclusions_and_removing_records_parallel_split_1_removing_records_default_removing_records_input_datasets_validator</text>
</g>
<!-- 14&#45;&gt;10 -->
<g id="edge27" class="edge">
<title>14&#45;&gt;10</title>
<path fill="none" stroke="grey" stroke-width="2" d="M827.13,-1223.06C877.16,-1213.39 939.09,-1201.41 990.94,-1191.39"/>
<polygon fill="grey" stroke="grey" stroke-width="2" points="991.42,-1194.86 1000.58,-1189.52 990.09,-1187.99 991.42,-1194.86"/>
</g>
<!-- 15&#45;&gt;10 -->
<g id="edge28" class="edge">
<title>15&#45;&gt;10</title>
<path fill="none" stroke="grey" stroke-width="2" d="M1346.28,-1223.06C1300.14,-1213.45 1243.09,-1201.57 1195.15,-1191.58"/>
<polygon fill="grey" stroke="grey" stroke-width="2" points="1196,-1188.18 1185.5,-1189.57 1194.57,-1195.03 1196,-1188.18"/>
</g>
<!-- 16 -->
<g id="node17" class="node">
<title>16</title>
<path fill="none" stroke="#d88d56" stroke-width="2" d="M2249.25,-1188C2249.25,-1188 1719.5,-1188 1719.5,-1188 1713.5,-1188 1707.5,-1182 1707.5,-1176 1707.5,-1176 1707.5,-1164 1707.5,-1164 1707.5,-1158 1713.5,-1152 1719.5,-1152 1719.5,-1152 2249.25,-1152 2249.25,-1152 2255.25,-1152 2261.25,-1158 2261.25,-1164 2261.25,-1164 2261.25,-1176 2261.25,-1176 2261.25,-1182 2255.25,-1188 2249.25,-1188"/>
<text text-anchor="middle" x="1984.38" y="-1166.88" font-family="sans" font-size="10.00">determining_exclusions_and_removing_records_parallel_split_2_removing_records_default_removing_records</text>
</g>
<!-- 16&#45;&gt;9 -->
<g id="edge24" class="edge">
<title>16&#45;&gt;9</title>
<path fill="none" stroke="grey" stroke-width="2" d="M1986.29,-1151.19C1987.4,-1130.64 1985.6,-1097.44 1965.38,-1080 1919.38,-1040.33 1499.2,-1047.5 1397.1,-1044.05"/>
<polygon fill="grey" stroke="grey" stroke-width="2" points="1397.38,-1040.56 1387.22,-1043.58 1397.05,-1047.55 1397.38,-1040.56"/>
</g>
<!-- 16&#45;&gt;22 -->
<g id="edge39" class="edge">
<title>16&#45;&gt;22</title>
<path fill="none" stroke="grey" stroke-width="2" d="M1756.27,-1151.02C1627.96,-1140.9 1467.86,-1128.28 1337.49,-1118.01"/>
<polygon fill="grey" stroke="grey" stroke-width="2" points="1337.83,-1114.52 1327.59,-1117.23 1337.28,-1121.5 1337.83,-1114.52"/>
</g>
<!-- 16&#45;&gt;23 -->
<g id="edge41" class="edge">
<title>16&#45;&gt;23</title>
<path fill="none" stroke="grey" stroke-width="2" d="M1994.66,-1151C2004.46,-1131.2 2015.4,-1099.6 1998.38,-1080 1978.06,-1056.61 1921.91,-1043.26 1859.04,-1035.73"/>
<polygon fill="grey" stroke="grey" stroke-width="2" points="1859.73,-1032.28 1849.4,-1034.64 1858.94,-1039.24 1859.73,-1032.28"/>
</g>
<!-- 16&#45;&gt;24 -->
<g id="edge44" class="edge">
<title>16&#45;&gt;24</title>
<path fill="none" stroke="grey" stroke-width="2" d="M1908.53,-1151.06C1868.32,-1141.55 1818.69,-1129.82 1776.74,-1119.9"/>
<polygon fill="grey" stroke="grey" stroke-width="2" points="1777.76,-1116.54 1767.22,-1117.65 1776.15,-1123.35 1777.76,-1116.54"/>
</g>
<!-- 17 -->
<g id="node18" class="node">
<title>17</title>
<path fill="none" stroke="#5673d8" stroke-width="2" d="M2429.75,-1332C2429.75,-1332 1843,-1332 1843,-1332 1837,-1332 1831,-1326 1831,-1320 1831,-1320 1831,-1308 1831,-1308 1831,-1302 1837,-1296 1843,-1296 1843,-1296 2429.75,-1296 2429.75,-1296 2435.75,-1296 2441.75,-1302 2441.75,-1308 2441.75,-1308 2441.75,-1320 2441.75,-1320 2441.75,-1326 2435.75,-1332 2429.75,-1332"/>
<text text-anchor="middle" x="2136.38" y="-1310.88" font-family="sans" font-size="10.00">determining_exclusions_and_removing_records_parallel_split_2_determining_exclusions_default_determining_exclusions</text>
</g>
<!-- 17&#45;&gt;16 -->
<g id="edge32" class="edge">
<title>17&#45;&gt;16</title>
<path fill="none" stroke="grey" stroke-width="2" d="M1905.73,-1295.01C1865.92,-1287.2 1832.94,-1276.02 1819.38,-1260 1793.01,-1228.87 1832.02,-1206.88 1878.7,-1192.56"/>
<polygon fill="grey" stroke="grey" stroke-width="2" points="1879.49,-1195.97 1888.12,-1189.83 1877.54,-1189.25 1879.49,-1195.97"/>
</g>
<!-- 21 -->
<g id="node22" class="node">
<title>21</title>
<path fill="none" stroke="#56d8a9" stroke-width="2" d="M3194.25,-1260C3194.25,-1260 2538.5,-1260 2538.5,-1260 2532.5,-1260 2526.5,-1254 2526.5,-1248 2526.5,-1248 2526.5,-1236 2526.5,-1236 2526.5,-1230 2532.5,-1224 2538.5,-1224 2538.5,-1224 3194.25,-1224 3194.25,-1224 3200.25,-1224 3206.25,-1230 3206.25,-1236 3206.25,-1236 3206.25,-1248 3206.25,-1248 3206.25,-1254 3200.25,-1260 3194.25,-1260"/>
<text text-anchor="middle" x="2866.38" y="-1238.88" font-family="sans" font-size="10.00">determining_exclusions_and_removing_records_parallel_split_2_removing_records_default_removing_records_ids_to_remove_validator</text>
</g>
<!-- 17&#45;&gt;21 -->
<g id="edge37" class="edge">
<title>17&#45;&gt;21</title>
<path fill="none" stroke="grey" stroke-width="2" d="M2323.89,-1295.02C2428.63,-1284.98 2559.13,-1272.46 2665.89,-1262.23"/>
<polygon fill="grey" stroke="grey" stroke-width="2" points="2666.15,-1265.72 2675.77,-1261.28 2665.48,-1258.75 2666.15,-1265.72"/>
</g>
<!-- 18 -->
<g id="node19" class="node">
<title>18</title>
<path fill="none" stroke="#d88556" stroke-width="2" d="M2407.75,-1404C2407.75,-1404 1695,-1404 1695,-1404 1689,-1404 1683,-1398 1683,-1392 1683,-1392 1683,-1380 1683,-1380 1683,-1374 1689,-1368 1695,-1368 1695,-1368 2407.75,-1368 2407.75,-1368 2413.75,-1368 2419.75,-1374 2419.75,-1380 2419.75,-1380 2419.75,-1392 2419.75,-1392 2419.75,-1398 2413.75,-1404 2407.75,-1404"/>
<text text-anchor="middle" x="2051.38" y="-1382.88" font-family="sans" font-size="10.00">determining_exclusions_and_removing_records_parallel_split_2_determining_exclusions_default_determining_exclusions_input_datasets_validator</text>
</g>
<!-- 18&#45;&gt;17 -->
<g id="edge35" class="edge">
<title>18&#45;&gt;17</title>
<path fill="none" stroke="grey" stroke-width="2" d="M2072.82,-1367.34C2082.51,-1359.36 2094.16,-1349.77 2104.82,-1340.99"/>
<polygon fill="grey" stroke="grey" stroke-width="2" points="2106.81,-1343.88 2112.3,-1334.83 2102.36,-1338.48 2106.81,-1343.88"/>
</g>
<!-- 19 -->
<g id="node20" class="node">
<title>19</title>
<path fill="none" stroke="#d87556" stroke-width="2" d="M3166.62,-1404C3166.62,-1404 2450.12,-1404 2450.12,-1404 2444.12,-1404 2438.12,-1398 2438.12,-1392 2438.12,-1392 2438.12,-1380 2438.12,-1380 2438.12,-1374 2444.12,-1368 2450.12,-1368 2450.12,-1368 3166.62,-1368 3166.62,-1368 3172.62,-1368 3178.62,-1374 3178.62,-1380 3178.62,-1380 3178.62,-1392 3178.62,-1392 3178.62,-1398 3172.62,-1404 3166.62,-1404"/>
<text text-anchor="middle" x="2808.38" y="-1382.88" font-family="sans" font-size="10.00">determining_exclusions_and_removing_records_parallel_split_2_determining_exclusions_default_determining_exclusions_known_clusters_validator</text>
</g>
<!-- 19&#45;&gt;17 -->
<g id="edge36" class="edge">
<title>19&#45;&gt;17</title>
<path fill="none" stroke="grey" stroke-width="2" d="M2635.75,-1367.02C2539.64,-1357.01 2419.94,-1344.54 2321.83,-1334.32"/>
<polygon fill="grey" stroke="grey" stroke-width="2" points="2322.38,-1330.86 2312.07,-1333.3 2321.66,-1337.82 2322.38,-1330.86"/>
</g>
<!-- 20 -->
<g id="node21" class="node">
<title>20</title>
<path fill="none" stroke="#d85656" stroke-width="2" d="M2496.25,-1260C2496.25,-1260 1840.5,-1260 1840.5,-1260 1834.5,-1260 1828.5,-1254 1828.5,-1248 1828.5,-1248 1828.5,-1236 1828.5,-1236 1828.5,-1230 1834.5,-1224 1840.5,-1224 1840.5,-1224 2496.25,-1224 2496.25,-1224 2502.25,-1224 2508.25,-1230 2508.25,-1236 2508.25,-1236 2508.25,-1248 2508.25,-1248 2508.25,-1254 2502.25,-1260 2496.25,-1260"/>
<text text-anchor="middle" x="2168.38" y="-1238.88" font-family="sans" font-size="10.00">determining_exclusions_and_removing_records_parallel_split_2_removing_records_default_removing_records_input_datasets_validator</text>
</g>
<!-- 20&#45;&gt;16 -->
<g id="edge33" class="edge">
<title>20&#45;&gt;16</title>
<path fill="none" stroke="grey" stroke-width="2" d="M2121.47,-1223.15C2097.77,-1214.14 2068.77,-1203.11 2043.55,-1193.51"/>
<polygon fill="grey" stroke="grey" stroke-width="2" points="2044.94,-1190.29 2034.35,-1190.01 2042.45,-1196.84 2044.94,-1190.29"/>
</g>
<!-- 21&#45;&gt;16 -->
<g id="edge34" class="edge">
<title>21&#45;&gt;16</title>
<path fill="none" stroke="grey" stroke-width="2" d="M2639.81,-1223.02C2512.37,-1212.9 2353.35,-1200.28 2223.86,-1190.01"/>
<polygon fill="grey" stroke="grey" stroke-width="2" points="2224.29,-1186.53 2214.04,-1189.23 2223.74,-1193.51 2224.29,-1186.53"/>
</g>
<!-- 22&#45;&gt;9 -->
<g id="edge25" class="edge">
<title>22&#45;&gt;9</title>
<path fill="none" stroke="grey" stroke-width="2" d="M1112.78,-1079.34C1119.81,-1071.77 1128.18,-1062.75 1135.98,-1054.35"/>
<polygon fill="grey" stroke="grey" stroke-width="2" points="1138.45,-1056.83 1142.69,-1047.12 1133.32,-1052.07 1138.45,-1056.83"/>
</g>
<!-- 23&#45;&gt;8 -->
<g id="edge21" class="edge">
<title>23&#45;&gt;8</title>
<path fill="none" stroke="grey" stroke-width="2" d="M1601.44,-1007.3C1576.88,-988.05 1535.41,-957.21 1496.38,-936 1475.28,-924.54 1451.18,-914.09 1429.45,-905.57"/>
<polygon fill="grey" stroke="grey" stroke-width="2" points="1430.72,-902.31 1420.13,-901.99 1428.21,-908.84 1430.72,-902.31"/>
</g>
<!-- 23&#45;&gt;25 -->
<g id="edge46" class="edge">
<title>23&#45;&gt;25</title>
<path fill="none" stroke="grey" stroke-width="2" d="M1557.27,-1007.06C1522.68,-997.68 1480.1,-986.13 1443.85,-976.29"/>
<polygon fill="grey" stroke="grey" stroke-width="2" points="1444.8,-972.92 1434.23,-973.68 1442.97,-979.68 1444.8,-972.92"/>
</g>
<!-- 24&#45;&gt;23 -->
<g id="edge42" class="edge">
<title>24&#45;&gt;23</title>
<path fill="none" stroke="grey" stroke-width="2" d="M1671.97,-1079.34C1664.94,-1071.77 1656.57,-1062.75 1648.77,-1054.35"/>
<polygon fill="grey" stroke="grey" stroke-width="2" points="1651.43,-1052.07 1642.06,-1047.12 1646.3,-1056.83 1651.43,-1052.07"/>
</g>
<!-- 25&#45;&gt;8 -->
<g id="edge22" class="edge">
<title>25&#45;&gt;8</title>
<path fill="none" stroke="grey" stroke-width="2" d="M1365.38,-935.34C1365.38,-928.75 1365.38,-921.08 1365.38,-913.67"/>
<polygon fill="grey" stroke="grey" stroke-width="2" points="1368.88,-913.93 1365.38,-903.93 1361.88,-913.93 1368.88,-913.93"/>
</g>
<!-- 26&#45;&gt;7 -->
<g id="edge18" class="edge">
<title>26&#45;&gt;7</title>
<path fill="none" stroke="grey" stroke-width="2" d="M1151.38,-791.15C1163.37,-782.93 1177.8,-773.02 1190.86,-764.06"/>
<polygon fill="grey" stroke="grey" stroke-width="2" points="1192.66,-767.07 1198.92,-758.53 1188.7,-761.3 1192.66,-767.07"/>
</g>
<!-- 27&#45;&gt;7 -->
<g id="edge19" class="edge">
<title>27&#45;&gt;7</title>
<path fill="none" stroke="grey" stroke-width="2" d="M1386.54,-791.06C1358.48,-781.88 1324.07,-770.63 1294.44,-760.94"/>
<polygon fill="grey" stroke="grey" stroke-width="2" points="1295.53,-757.61 1284.94,-757.83 1293.36,-764.27 1295.53,-757.61"/>
</g>
<!-- 28&#45;&gt;4 -->
<g id="edge13" class="edge">
<title>28&#45;&gt;4</title>
<path fill="none" stroke="grey" stroke-width="2" d="M977.94,-719.15C976.18,-700.59 975.59,-671.08 985.38,-648 989.4,-638.51 995.9,-629.65 1002.87,-621.99"/>
<polygon fill="grey" stroke="grey" stroke-width="2" points="1005.11,-624.69 1009.66,-615.12 1000.14,-619.77 1005.11,-624.69"/>
</g>
<!-- 29&#45;&gt;4 -->
<g id="edge14" class="edge">
<title>29&#45;&gt;4</title>
<path fill="none" stroke="grey" stroke-width="2" d="M1085.96,-647.34C1078.42,-639.69 1069.42,-630.56 1061.07,-622.08"/>
<polygon fill="grey" stroke="grey" stroke-width="2" points="1063.66,-619.72 1054.15,-615.06 1058.67,-624.64 1063.66,-619.72"/>
</g>
<!-- 30&#45;&gt;3 -->
<g id="edge10" class="edge">
<title>30&#45;&gt;3</title>
<path fill="none" stroke="grey" stroke-width="2" d="M1084.47,-503.34C1077.14,-495.69 1068.41,-486.56 1060.29,-478.08"/>
<polygon fill="grey" stroke="grey" stroke-width="2" points="1063.05,-475.89 1053.6,-471.09 1057.99,-480.73 1063.05,-475.89"/>
</g>
<!-- 31 -->
<g id="node32" class="node">
<title>31</title>
<path fill="none" stroke="#9fd856" stroke-width="2" d="M1218.25,-396C1218.25,-396 970.5,-396 970.5,-396 964.5,-396 958.5,-390 958.5,-384 958.5,-384 958.5,-372 958.5,-372 958.5,-366 964.5,-360 970.5,-360 970.5,-360 1218.25,-360 1218.25,-360 1224.25,-360 1230.25,-366 1230.25,-372 1230.25,-372 1230.25,-384 1230.25,-384 1230.25,-390 1224.25,-396 1218.25,-396"/>
<text text-anchor="middle" x="1094.38" y="-374.88" font-family="sans" font-size="10.00">default_updating_clusters_known_clusters_validator</text>
</g>
<!-- 31&#45;&gt;2 -->
<g id="edge7" class="edge">
<title>31&#45;&gt;2</title>
<path fill="none" stroke="grey" stroke-width="2" d="M1094.38,-359.34C1094.38,-352.75 1094.38,-345.08 1094.38,-337.67"/>
<polygon fill="grey" stroke="grey" stroke-width="2" points="1097.88,-337.93 1094.38,-327.93 1090.88,-337.93 1097.88,-337.93"/>
</g>
<!-- 32&#45;&gt;2 -->
<g id="edge8" class="edge">
<title>32&#45;&gt;2</title>
<path fill="none" stroke="grey" stroke-width="2" d="M883.14,-359.06C921.93,-349.5 969.85,-337.69 1010.23,-327.74"/>
<polygon fill="grey" stroke="grey" stroke-width="2" points="1010.97,-331.16 1019.84,-325.37 1009.29,-324.37 1010.97,-331.16"/>
</g>
<!-- 33 -->
<g id="node34" class="node">
<title>33</title>
<path fill="none" stroke="#70d856" stroke-width="2" d="M1361.12,-252C1361.12,-252 995.62,-252 995.62,-252 989.62,-252 983.62,-246 983.62,-240 983.62,-240 983.62,-228 983.62,-228 983.62,-222 989.62,-216 995.62,-216 995.62,-216 1361.12,-216 1361.12,-216 1367.12,-216 1373.12,-222 1373.12,-228 1373.12,-228 1373.12,-240 1373.12,-240 1373.12,-246 1367.12,-252 1361.12,-252"/>
<text text-anchor="middle" x="1178.38" y="-230.88" font-family="sans" font-size="10.00">dummy_canonicalizing_and_downstream_analysis_input_datasets_validator</text>
</g>
<!-- 33&#45;&gt;1 -->
<g id="edge4" class="edge">
<title>33&#45;&gt;1</title>
<path fill="none" stroke="grey" stroke-width="2" d="M1178.38,-215.34C1178.38,-208.75 1178.38,-201.08 1178.38,-193.67"/>
<polygon fill="grey" stroke="grey" stroke-width="2" points="1181.88,-193.93 1178.38,-183.93 1174.88,-193.93 1181.88,-193.93"/>
</g>
<!-- 34&#45;&gt;1 -->
<g id="edge5" class="edge">
<title>34&#45;&gt;1</title>
<path fill="none" stroke="grey" stroke-width="2" d="M887.81,-215.02C942.09,-205.3 1009.28,-193.27 1065.37,-183.23"/>
<polygon fill="grey" stroke="grey" stroke-width="2" points="1065.69,-186.73 1074.92,-181.52 1064.46,-179.84 1065.69,-186.73"/>
</g>
<!-- 35&#45;&gt;0 -->
<g id="edge2" class="edge">
<title>35&#45;&gt;0</title>
<path fill="none" stroke="grey" stroke-width="2" d="M1222.49,-71.34C1216.18,-63.85 1208.67,-54.95 1201.66,-46.63"/>
<polygon fill="grey" stroke="grey" stroke-width="2" points="1204.54,-44.61 1195.41,-39.22 1199.18,-49.12 1204.54,-44.61"/>
</g>
</g>
</svg>
