<?xml version="1.0" encoding="UTF-8" standalone="no"?>
<!DOCTYPE svg PUBLIC "-//W3C//DTD SVG 1.1//EN"
 "http://www.w3.org/Graphics/SVG/1.1/DTD/svg11.dtd">
<!-- Generated by graphviz version 12.2.1 (20250203.1708)
 -->
<!-- Title: snakemake_dag Pages: 1 -->
<svg width="727pt" height="980pt"
 viewBox="0.00 0.00 726.62 980.00" xmlns="http://www.w3.org/2000/svg" xmlns:xlink="http://www.w3.org/1999/xlink">
<g id="graph0" class="graph" transform="scale(1 1) rotate(0) translate(4 976)">
<title>snakemake_dag</title>
<polygon fill="white" stroke="none" points="-4,4 -4,-976 722.62,-976 722.62,4 -4,4"/>
<!-- 0 -->
<g id="node1" class="node">
<title>0</title>
<path fill="none" stroke="#5673d8" stroke-width="2" d="M278.88,-36C278.88,-36 248.88,-36 248.88,-36 242.88,-36 236.88,-30 236.88,-24 236.88,-24 236.88,-12 236.88,-12 236.88,-6 242.88,0 248.88,0 248.88,0 278.88,0 278.88,0 284.88,0 290.88,-6 290.88,-12 290.88,-12 290.88,-24 290.88,-24 290.88,-30 284.88,-36 278.88,-36"/>
<text text-anchor="middle" x="263.88" y="-14.88" font-family="sans" font-size="10.00">all</text>
</g>
<!-- 1 -->
<g id="node2" class="node">
<title>1</title>
<path fill="none" stroke="#88d856" stroke-width="2" d="M315.75,-180C315.75,-180 212,-180 212,-180 206,-180 200,-174 200,-168 200,-168 200,-156 200,-156 200,-150 206,-144 212,-144 212,-144 315.75,-144 315.75,-144 321.75,-144 327.75,-150 327.75,-156 327.75,-156 327.75,-168 327.75,-168 327.75,-174 321.75,-180 315.75,-180"/>
<text text-anchor="middle" x="263.88" y="-158.88" font-family="sans" font-size="10.00">step_4_python_pandas</text>
</g>
<!-- 1&#45;&gt;0 -->
<g id="edge1" class="edge">
<title>1&#45;&gt;0</title>
<path fill="none" stroke="grey" stroke-width="2" d="M248.76,-143.16C241.52,-133.44 233.63,-120.8 229.88,-108 225.37,-92.65 225.37,-87.35 229.88,-72 232.37,-63.5 236.69,-55.07 241.43,-47.52"/>
<polygon fill="grey" stroke="grey" stroke-width="2" points="244.27,-49.56 247.05,-39.34 238.5,-45.6 244.27,-49.56"/>
</g>
<!-- 14 -->
<g id="node15" class="node">
<title>14</title>
<path fill="none" stroke="#d89556" stroke-width="2" d="M384.75,-108C384.75,-108 251,-108 251,-108 245,-108 239,-102 239,-96 239,-96 239,-84 239,-84 239,-78 245,-72 251,-72 251,-72 384.75,-72 384.75,-72 390.75,-72 396.75,-78 396.75,-84 396.75,-84 396.75,-96 396.75,-96 396.75,-102 390.75,-108 384.75,-108"/>
<text text-anchor="middle" x="317.88" y="-86.88" font-family="sans" font-size="10.00">results_main_input_validator</text>
</g>
<!-- 1&#45;&gt;14 -->
<g id="edge19" class="edge">
<title>1&#45;&gt;14</title>
<path fill="none" stroke="grey" stroke-width="2" d="M277.5,-143.34C283.15,-136.01 289.84,-127.34 296.14,-119.18"/>
<polygon fill="grey" stroke="grey" stroke-width="2" points="298.88,-121.35 302.22,-111.3 293.34,-117.08 298.88,-121.35"/>
</g>
<!-- 2 -->
<g id="node3" class="node">
<title>2</title>
<path fill="none" stroke="#9fd856" stroke-width="2" d="M349.75,-324C349.75,-324 12,-324 12,-324 6,-324 0,-318 0,-312 0,-312 0,-300 0,-300 0,-294 6,-288 12,-288 12,-288 349.75,-288 349.75,-288 355.75,-288 361.75,-294 361.75,-300 361.75,-300 361.75,-312 361.75,-312 361.75,-318 355.75,-324 349.75,-324"/>
<text text-anchor="middle" x="180.88" y="-302.88" font-family="sans" font-size="10.00">aggregate_step_3_loop_2_step_3_python_pandas_step_3_main_output</text>
</g>
<!-- 2&#45;&gt;1 -->
<g id="edge3" class="edge">
<title>2&#45;&gt;1</title>
<path fill="none" stroke="grey" stroke-width="2" d="M149.58,-287.09C137.3,-278.26 124.57,-266.38 117.88,-252 111.12,-237.49 108.69,-229.1 117.88,-216 133.77,-193.31 160.42,-180.3 186.64,-172.85"/>
<polygon fill="grey" stroke="grey" stroke-width="2" points="187.24,-176.31 196.08,-170.46 185.52,-169.52 187.24,-176.31"/>
</g>
<!-- 13 -->
<g id="node14" class="node">
<title>13</title>
<path fill="none" stroke="#56d882" stroke-width="2" d="M388.88,-252C388.88,-252 138.88,-252 138.88,-252 132.88,-252 126.88,-246 126.88,-240 126.88,-240 126.88,-228 126.88,-228 126.88,-222 132.88,-216 138.88,-216 138.88,-216 388.88,-216 388.88,-216 394.88,-216 400.88,-222 400.88,-228 400.88,-228 400.88,-240 400.88,-240 400.88,-246 394.88,-252 388.88,-252"/>
<text text-anchor="middle" x="263.88" y="-230.88" font-family="sans" font-size="10.00">step_4_python_pandas_step_4_main_input_validator</text>
</g>
<!-- 2&#45;&gt;13 -->
<g id="edge18" class="edge">
<title>2&#45;&gt;13</title>
<path fill="none" stroke="grey" stroke-width="2" d="M201.82,-287.34C211.18,-279.44 222.42,-269.96 232.74,-261.26"/>
<polygon fill="grey" stroke="grey" stroke-width="2" points="234.95,-263.98 240.33,-254.85 230.43,-258.62 234.95,-263.98"/>
</g>
<!-- 3 -->
<g id="node4" class="node">
<title>3</title>
<path fill="none" stroke="#bed856" stroke-width="2" d="M332.12,-396C332.12,-396 29.62,-396 29.62,-396 23.62,-396 17.62,-390 17.62,-384 17.62,-384 17.62,-372 17.62,-372 17.62,-366 23.62,-360 29.62,-360 29.62,-360 332.12,-360 332.12,-360 338.12,-360 344.12,-366 344.12,-372 344.12,-372 344.12,-384 344.12,-384 344.12,-390 338.12,-396 332.12,-396"/>
<text text-anchor="middle" x="180.88" y="-374.88" font-family="sans" font-size="10.00">split_step_3_loop_2_step_3_python_pandas_step_3_main_input</text>
</g>
<!-- 3&#45;&gt;2 -->
<g id="edge6" class="edge">
<title>3&#45;&gt;2</title>
<path fill="none" stroke="grey" stroke-width="2" d="M180.88,-359.34C180.88,-352.75 180.88,-345.08 180.88,-337.67"/>
<polygon fill="grey" stroke="grey" stroke-width="2" points="184.38,-337.93 180.88,-327.93 177.38,-337.93 184.38,-337.93"/>
</g>
<!-- 4 -->
<g id="node5" class="node">
<title>4</title>
<path fill="none" stroke="#56d863" stroke-width="2" d="M349.75,-540C349.75,-540 12,-540 12,-540 6,-540 0,-534 0,-528 0,-528 0,-516 0,-516 0,-510 6,-504 12,-504 12,-504 349.75,-504 349.75,-504 355.75,-504 361.75,-510 361.75,-516 361.75,-516 361.75,-528 361.75,-528 361.75,-534 355.75,-540 349.75,-540"/>
<text text-anchor="middle" x="180.88" y="-518.88" font-family="sans" font-size="10.00">aggregate_step_3_loop_1_step_3_python_pandas_step_3_main_output</text>
</g>
<!-- 4&#45;&gt;3 -->
<g id="edge7" class="edge">
<title>4&#45;&gt;3</title>
<path fill="none" stroke="grey" stroke-width="2" d="M136.53,-503.02C121.84,-494.68 107.14,-483.19 98.88,-468 91.23,-453.95 91.23,-446.05 98.88,-432 105.07,-420.61 114.89,-411.3 125.61,-403.83"/>
<polygon fill="grey" stroke="grey" stroke-width="2" points="127.36,-406.87 133.97,-398.59 123.63,-400.94 127.36,-406.87"/>
</g>
<!-- 11 -->
<g id="node12" class="node">
<title>11</title>
<path fill="none" stroke="#d8b456" stroke-width="2" d="M445.38,-468C445.38,-468 120.38,-468 120.38,-468 114.38,-468 108.38,-462 108.38,-456 108.38,-456 108.38,-444 108.38,-444 108.38,-438 114.38,-432 120.38,-432 120.38,-432 445.38,-432 445.38,-432 451.38,-432 457.38,-438 457.38,-444 457.38,-444 457.38,-456 457.38,-456 457.38,-462 451.38,-468 445.38,-468"/>
<text text-anchor="middle" x="282.88" y="-446.88" font-family="sans" font-size="10.00">step_3_loop_2_step_3_python_pandas_step_3_main_input_validator</text>
</g>
<!-- 4&#45;&gt;11 -->
<g id="edge17" class="edge">
<title>4&#45;&gt;11</title>
<path fill="none" stroke="grey" stroke-width="2" d="M206.88,-503.15C218.87,-494.93 233.3,-485.02 246.36,-476.06"/>
<polygon fill="grey" stroke="grey" stroke-width="2" points="248.16,-479.07 254.42,-470.53 244.2,-473.3 248.16,-479.07"/>
</g>
<!-- 5 -->
<g id="node6" class="node">
<title>5</title>
<path fill="none" stroke="#d85656" stroke-width="2" d="M332.12,-612C332.12,-612 29.62,-612 29.62,-612 23.62,-612 17.62,-606 17.62,-600 17.62,-600 17.62,-588 17.62,-588 17.62,-582 23.62,-576 29.62,-576 29.62,-576 332.12,-576 332.12,-576 338.12,-576 344.12,-582 344.12,-588 344.12,-588 344.12,-600 344.12,-600 344.12,-606 338.12,-612 332.12,-612"/>
<text text-anchor="middle" x="180.88" y="-590.88" font-family="sans" font-size="10.00">split_step_3_loop_1_step_3_python_pandas_step_3_main_input</text>
</g>
<!-- 5&#45;&gt;4 -->
<g id="edge9" class="edge">
<title>5&#45;&gt;4</title>
<path fill="none" stroke="grey" stroke-width="2" d="M180.88,-575.34C180.88,-568.75 180.88,-561.08 180.88,-553.67"/>
<polygon fill="grey" stroke="grey" stroke-width="2" points="184.38,-553.93 180.88,-543.93 177.38,-553.93 184.38,-553.93"/>
</g>
<!-- 6 -->
<g id="node7" class="node">
<title>6</title>
<path fill="none" stroke="#5692d8" stroke-width="2" d="M232.75,-756C232.75,-756 129,-756 129,-756 123,-756 117,-750 117,-744 117,-744 117,-732 117,-732 117,-726 123,-720 129,-720 129,-720 232.75,-720 232.75,-720 238.75,-720 244.75,-726 244.75,-732 244.75,-732 244.75,-744 244.75,-744 244.75,-750 238.75,-756 232.75,-756"/>
<text text-anchor="middle" x="180.88" y="-734.88" font-family="sans" font-size="10.00">step_2_python_pandas</text>
</g>
<!-- 6&#45;&gt;5 -->
<g id="edge10" class="edge">
<title>6&#45;&gt;5</title>
<path fill="none" stroke="grey" stroke-width="2" d="M136.53,-719.02C121.84,-710.68 107.14,-699.19 98.88,-684 91.23,-669.95 91.23,-662.05 98.88,-648 105.07,-636.61 114.89,-627.3 125.61,-619.83"/>
<polygon fill="grey" stroke="grey" stroke-width="2" points="127.36,-622.87 133.97,-614.59 123.63,-616.94 127.36,-622.87"/>
</g>
<!-- 10 -->
<g id="node11" class="node">
<title>10</title>
<path fill="none" stroke="#56d8c1" stroke-width="2" d="M445.38,-684C445.38,-684 120.38,-684 120.38,-684 114.38,-684 108.38,-678 108.38,-672 108.38,-672 108.38,-660 108.38,-660 108.38,-654 114.38,-648 120.38,-648 120.38,-648 445.38,-648 445.38,-648 451.38,-648 457.38,-654 457.38,-660 457.38,-660 457.38,-672 457.38,-672 457.38,-678 451.38,-684 445.38,-684"/>
<text text-anchor="middle" x="282.88" y="-662.88" font-family="sans" font-size="10.00">step_3_loop_1_step_3_python_pandas_step_3_main_input_validator</text>
</g>
<!-- 6&#45;&gt;10 -->
<g id="edge16" class="edge">
<title>6&#45;&gt;10</title>
<path fill="none" stroke="grey" stroke-width="2" d="M206.88,-719.15C218.87,-710.93 233.3,-701.02 246.36,-692.06"/>
<polygon fill="grey" stroke="grey" stroke-width="2" points="248.16,-695.07 254.42,-686.53 244.2,-689.3 248.16,-695.07"/>
</g>
<!-- 7 -->
<g id="node8" class="node">
<title>7</title>
<path fill="none" stroke="#d8d356" stroke-width="2" d="M232.75,-900C232.75,-900 129,-900 129,-900 123,-900 117,-894 117,-888 117,-888 117,-876 117,-876 117,-870 123,-864 129,-864 129,-864 232.75,-864 232.75,-864 238.75,-864 244.75,-870 244.75,-876 244.75,-876 244.75,-888 244.75,-888 244.75,-894 238.75,-900 232.75,-900"/>
<text text-anchor="middle" x="180.88" y="-878.88" font-family="sans" font-size="10.00">step_1_python_pandas</text>
</g>
<!-- 7&#45;&gt;6 -->
<g id="edge12" class="edge">
<title>7&#45;&gt;6</title>
<path fill="none" stroke="grey" stroke-width="2" d="M149.58,-863.09C137.3,-854.26 124.57,-842.38 117.88,-828 111.12,-813.49 111.12,-806.51 117.88,-792 122.74,-781.55 130.79,-772.42 139.54,-764.82"/>
<polygon fill="grey" stroke="grey" stroke-width="2" points="141.52,-767.72 147.2,-758.78 137.19,-762.23 141.52,-767.72"/>
</g>
<!-- 9 -->
<g id="node10" class="node">
<title>9</title>
<path fill="none" stroke="#d87556" stroke-width="2" d="M388.88,-828C388.88,-828 138.88,-828 138.88,-828 132.88,-828 126.88,-822 126.88,-816 126.88,-816 126.88,-804 126.88,-804 126.88,-798 132.88,-792 138.88,-792 138.88,-792 388.88,-792 388.88,-792 394.88,-792 400.88,-798 400.88,-804 400.88,-804 400.88,-816 400.88,-816 400.88,-822 394.88,-828 388.88,-828"/>
<text text-anchor="middle" x="263.88" y="-806.88" font-family="sans" font-size="10.00">step_2_python_pandas_step_2_main_input_validator</text>
</g>
<!-- 7&#45;&gt;9 -->
<g id="edge15" class="edge">
<title>7&#45;&gt;9</title>
<path fill="none" stroke="grey" stroke-width="2" d="M201.82,-863.34C211.18,-855.44 222.42,-845.96 232.74,-837.26"/>
<polygon fill="grey" stroke="grey" stroke-width="2" points="234.95,-839.98 240.33,-830.85 230.43,-834.62 234.95,-839.98"/>
</g>
<!-- 8 -->
<g id="node9" class="node">
<title>8</title>
<path fill="none" stroke="#56d8a2" stroke-width="2" d="M305.88,-972C305.88,-972 55.88,-972 55.88,-972 49.88,-972 43.88,-966 43.88,-960 43.88,-960 43.88,-948 43.88,-948 43.88,-942 49.88,-936 55.88,-936 55.88,-936 305.88,-936 305.88,-936 311.88,-936 317.88,-942 317.88,-948 317.88,-948 317.88,-960 317.88,-960 317.88,-966 311.88,-972 305.88,-972"/>
<text text-anchor="middle" x="180.88" y="-950.88" font-family="sans" font-size="10.00">step_1_python_pandas_step_1_main_input_validator</text>
</g>
<!-- 8&#45;&gt;7 -->
<g id="edge14" class="edge">
<title>8&#45;&gt;7</title>
<path fill="none" stroke="grey" stroke-width="2" d="M180.88,-935.34C180.88,-928.75 180.88,-921.08 180.88,-913.67"/>
<polygon fill="grey" stroke="grey" stroke-width="2" points="184.38,-913.93 180.88,-903.93 177.38,-913.93 184.38,-913.93"/>
</g>
<!-- 9&#45;&gt;6 -->
<g id="edge13" class="edge">
<title>9&#45;&gt;6</title>
<path fill="none" stroke="grey" stroke-width="2" d="M242.93,-791.34C233.57,-783.44 222.33,-773.96 212.01,-765.26"/>
<polygon fill="grey" stroke="grey" stroke-width="2" points="214.32,-762.62 204.42,-758.85 209.8,-767.98 214.32,-762.62"/>
</g>
<!-- 10&#45;&gt;5 -->
<g id="edge11" class="edge">
<title>10&#45;&gt;5</title>
<path fill="none" stroke="grey" stroke-width="2" d="M256.87,-647.15C244.88,-638.93 230.45,-629.02 217.39,-620.06"/>
<polygon fill="grey" stroke="grey" stroke-width="2" points="219.55,-617.3 209.33,-614.53 215.59,-623.07 219.55,-617.3"/>
</g>
<!-- 11&#45;&gt;3 -->
<g id="edge8" class="edge">
<title>11&#45;&gt;3</title>
<path fill="none" stroke="grey" stroke-width="2" d="M256.87,-431.15C244.88,-422.93 230.45,-413.02 217.39,-404.06"/>
<polygon fill="grey" stroke="grey" stroke-width="2" points="219.55,-401.3 209.33,-398.53 215.59,-407.07 219.55,-401.3"/>
</g>
<!-- 12 -->
<g id="node13" class="node">
<title>12</title>
<path fill="none" stroke="#56d0d8" stroke-width="2" d="M706.62,-252C706.62,-252 431.12,-252 431.12,-252 425.12,-252 419.12,-246 419.12,-240 419.12,-240 419.12,-228 419.12,-228 419.12,-222 425.12,-216 431.12,-216 431.12,-216 706.62,-216 706.62,-216 712.62,-216 718.62,-222 718.62,-228 718.62,-228 718.62,-240 718.62,-240 718.62,-246 712.62,-252 706.62,-252"/>
<text text-anchor="middle" x="568.88" y="-230.88" font-family="sans" font-size="10.00">step_4_python_pandas_step_4_secondary_input_validator</text>
</g>
<!-- 12&#45;&gt;1 -->
<g id="edge4" class="edge">
<title>12&#45;&gt;1</title>
<path fill="none" stroke="grey" stroke-width="2" d="M490.73,-215.06C444.75,-204.51 386.83,-191.22 341.02,-180.71"/>
<polygon fill="grey" stroke="grey" stroke-width="2" points="341.93,-177.32 331.4,-178.5 340.36,-184.15 341.93,-177.32"/>
</g>
<!-- 13&#45;&gt;1 -->
<g id="edge5" class="edge">
<title>13&#45;&gt;1</title>
<path fill="none" stroke="grey" stroke-width="2" d="M263.88,-215.34C263.88,-208.75 263.88,-201.08 263.88,-193.67"/>
<polygon fill="grey" stroke="grey" stroke-width="2" points="267.38,-193.93 263.88,-183.93 260.38,-193.93 267.38,-193.93"/>
</g>
<!-- 14&#45;&gt;0 -->
<g id="edge2" class="edge">
<title>14&#45;&gt;0</title>
<path fill="none" stroke="grey" stroke-width="2" d="M304.25,-71.34C298.6,-64.01 291.91,-55.34 285.61,-47.18"/>
<polygon fill="grey" stroke="grey" stroke-width="2" points="288.41,-45.08 279.53,-39.3 282.87,-49.35 288.41,-45.08"/>
</g>
</g>
</svg>
