<?xml version="1.0" encoding="UTF-8" standalone="no"?>
<!DOCTYPE svg PUBLIC "-//W3C//DTD SVG 1.1//EN"
 "http://www.w3.org/Graphics/SVG/1.1/DTD/svg11.dtd">
<!-- Generated by graphviz version 2.50.0 (0)
 -->
<!-- Title: snakemake_dag Pages: 1 -->
<svg width="1028pt" height="1124pt"
 viewBox="0.00 0.00 1028.17 1124.00" xmlns="http://www.w3.org/2000/svg" xmlns:xlink="http://www.w3.org/1999/xlink">
<g id="graph0" class="graph" transform="scale(1 1) rotate(0) translate(4 1120)">
<title>snakemake_dag</title>
<polygon fill="white" stroke="transparent" points="-4,4 -4,-1120 1024.17,-1120 1024.17,4 -4,4"/>
<!-- 0 -->
<g id="node1" class="node">
<title>0</title>
<path fill="none" stroke="#56a9d8" stroke-width="2" d="M583.09,-36C583.09,-36 553.09,-36 553.09,-36 547.09,-36 541.09,-30 541.09,-24 541.09,-24 541.09,-12 541.09,-12 541.09,-6 547.09,0 553.09,0 553.09,0 583.09,0 583.09,0 589.09,0 595.09,-6 595.09,-12 595.09,-12 595.09,-24 595.09,-24 595.09,-30 589.09,-36 583.09,-36"/>
<text text-anchor="middle" x="568.09" y="-15" font-family="sans" font-size="10.00">all</text>
</g>
<!-- 1 -->
<g id="node2" class="node">
<title>1</title>
<path fill="none" stroke="#d6d856" stroke-width="2" d="M612.24,-180C612.24,-180 523.93,-180 523.93,-180 517.93,-180 511.93,-174 511.93,-168 511.93,-168 511.93,-156 511.93,-156 511.93,-150 517.93,-144 523.93,-144 523.93,-144 612.24,-144 612.24,-144 618.24,-144 624.24,-150 624.24,-156 624.24,-156 624.24,-168 624.24,-168 624.24,-174 618.24,-180 612.24,-180"/>
<text text-anchor="middle" x="568.09" y="-159" font-family="sans" font-size="10.00">step_4b_python_pandas</text>
</g>
<!-- 1&#45;&gt;0 -->
<g id="edge1" class="edge">
<title>1&#45;&gt;0</title>
<path fill="none" stroke="grey" stroke-width="2" d="M556.2,-143.72C550.07,-133.76 543.24,-120.73 540.09,-108 536.24,-92.47 536.24,-87.53 540.09,-72 542.38,-62.75 546.61,-53.34 551.11,-45.07"/>
<polygon fill="grey" stroke="grey" stroke-width="2" points="554.21,-46.68 556.2,-36.28 548.16,-43.17 554.21,-46.68"/>
</g>
<!-- 21 -->
<g id="node22" class="node">
<title>21</title>
<path fill="none" stroke="#5682d8" stroke-width="2" d="M670.79,-108C670.79,-108 561.38,-108 561.38,-108 555.38,-108 549.38,-102 549.38,-96 549.38,-96 549.38,-84 549.38,-84 549.38,-78 555.38,-72 561.38,-72 561.38,-72 670.79,-72 670.79,-72 676.79,-72 682.79,-78 682.79,-84 682.79,-84 682.79,-96 682.79,-96 682.79,-102 676.79,-108 670.79,-108"/>
<text text-anchor="middle" x="616.09" y="-87" font-family="sans" font-size="10.00">results_main_input_validator</text>
</g>
<!-- 1&#45;&gt;21 -->
<g id="edge29" class="edge">
<title>1&#45;&gt;21</title>
<path fill="none" stroke="grey" stroke-width="2" d="M579.95,-143.7C585.59,-135.47 592.44,-125.48 598.66,-116.42"/>
<polygon fill="grey" stroke="grey" stroke-width="2" points="601.59,-118.33 604.36,-108.1 595.82,-114.37 601.59,-118.33"/>
</g>
<!-- 2 -->
<g id="node3" class="node">
<title>2</title>
<path fill="none" stroke="#56d8d8" stroke-width="2" d="M557.18,-324C557.18,-324 468.99,-324 468.99,-324 462.99,-324 456.99,-318 456.99,-312 456.99,-312 456.99,-300 456.99,-300 456.99,-294 462.99,-288 468.99,-288 468.99,-288 557.18,-288 557.18,-288 563.18,-288 569.18,-294 569.18,-300 569.18,-300 569.18,-312 569.18,-312 569.18,-318 563.18,-324 557.18,-324"/>
<text text-anchor="middle" x="513.09" y="-303" font-family="sans" font-size="10.00">step_4a_python_pandas</text>
</g>
<!-- 2&#45;&gt;1 -->
<g id="edge3" class="edge">
<title>2&#45;&gt;1</title>
<path fill="none" stroke="grey" stroke-width="2" d="M569.25,-297.28C620.37,-288.97 690.35,-273.92 707.09,-252 716.8,-239.28 716.16,-229.18 707.09,-216 690.58,-192.04 661.68,-178.9 634.49,-171.7"/>
<polygon fill="grey" stroke="grey" stroke-width="2" points="635.12,-168.26 624.58,-169.31 633.48,-175.06 635.12,-168.26"/>
</g>
<!-- 20 -->
<g id="node21" class="node">
<title>20</title>
<path fill="none" stroke="#c6d856" stroke-width="2" d="M407.94,-252C407.94,-252 192.23,-252 192.23,-252 186.23,-252 180.23,-246 180.23,-240 180.23,-240 180.23,-228 180.23,-228 180.23,-222 186.23,-216 192.23,-216 192.23,-216 407.94,-216 407.94,-216 413.94,-216 419.94,-222 419.94,-228 419.94,-228 419.94,-240 419.94,-240 419.94,-246 413.94,-252 407.94,-252"/>
<text text-anchor="middle" x="300.09" y="-231" font-family="sans" font-size="10.00">step_4b_python_pandas_step_4b_main_input_validator</text>
</g>
<!-- 2&#45;&gt;20 -->
<g id="edge28" class="edge">
<title>2&#45;&gt;20</title>
<path fill="none" stroke="grey" stroke-width="2" d="M461.25,-287.97C431.23,-278.1 393.26,-265.62 361.72,-255.25"/>
<polygon fill="grey" stroke="grey" stroke-width="2" points="362.75,-251.91 352.15,-252.11 360.56,-258.56 362.75,-251.91"/>
</g>
<!-- 3 -->
<g id="node4" class="node">
<title>3</title>
<path fill="none" stroke="#d89556" stroke-width="2" d="M597.15,-468C597.15,-468 319.02,-468 319.02,-468 313.02,-468 307.02,-462 307.02,-456 307.02,-456 307.02,-444 307.02,-444 307.02,-438 313.02,-432 319.02,-432 319.02,-432 597.15,-432 597.15,-432 603.15,-432 609.15,-438 609.15,-444 609.15,-444 609.15,-456 609.15,-456 609.15,-462 603.15,-468 597.15,-468"/>
<text text-anchor="middle" x="458.09" y="-447" font-family="sans" font-size="10.00">aggregate_step_3_loop_2_step_3_python_pandas_step_3_main_output</text>
</g>
<!-- 3&#45;&gt;2 -->
<g id="edge6" class="edge">
<title>3&#45;&gt;2</title>
<path fill="none" stroke="grey" stroke-width="2" d="M563.51,-431.96C602.64,-423.3 640.38,-411.33 652.09,-396 661.8,-383.28 661.16,-373.18 652.09,-360 635.51,-335.94 606.45,-322.8 579.17,-315.62"/>
<polygon fill="grey" stroke="grey" stroke-width="2" points="579.77,-312.16 569.23,-313.23 578.13,-318.97 579.77,-312.16"/>
</g>
<!-- 18 -->
<g id="node19" class="node">
<title>18</title>
<path fill="none" stroke="#d86e56" stroke-width="2" d="M353.32,-396C353.32,-396 138.85,-396 138.85,-396 132.85,-396 126.85,-390 126.85,-384 126.85,-384 126.85,-372 126.85,-372 126.85,-366 132.85,-360 138.85,-360 138.85,-360 353.32,-360 353.32,-360 359.32,-360 365.32,-366 365.32,-372 365.32,-372 365.32,-384 365.32,-384 365.32,-390 359.32,-396 353.32,-396"/>
<text text-anchor="middle" x="246.09" y="-375" font-family="sans" font-size="10.00">step_4a_python_pandas_step_4a_main_input_validator</text>
</g>
<!-- 3&#45;&gt;18 -->
<g id="edge27" class="edge">
<title>3&#45;&gt;18</title>
<path fill="none" stroke="grey" stroke-width="2" d="M406.5,-431.97C376.62,-422.1 338.83,-409.62 307.43,-399.25"/>
<polygon fill="grey" stroke="grey" stroke-width="2" points="308.5,-395.92 297.91,-396.11 306.31,-402.57 308.5,-395.92"/>
</g>
<!-- 4 -->
<g id="node5" class="node">
<title>4</title>
<path fill="none" stroke="#d88556" stroke-width="2" d="M584.02,-540C584.02,-540 332.16,-540 332.16,-540 326.16,-540 320.16,-534 320.16,-528 320.16,-528 320.16,-516 320.16,-516 320.16,-510 326.16,-504 332.16,-504 332.16,-504 584.02,-504 584.02,-504 590.02,-504 596.02,-510 596.02,-516 596.02,-516 596.02,-528 596.02,-528 596.02,-534 590.02,-540 584.02,-540"/>
<text text-anchor="middle" x="458.09" y="-519" font-family="sans" font-size="10.00">split_step_3_loop_2_step_3_python_pandas_step_3_main_input</text>
</g>
<!-- 4&#45;&gt;3 -->
<g id="edge9" class="edge">
<title>4&#45;&gt;3</title>
<path fill="none" stroke="grey" stroke-width="2" d="M458.09,-503.7C458.09,-495.98 458.09,-486.71 458.09,-478.11"/>
<polygon fill="grey" stroke="grey" stroke-width="2" points="461.59,-478.1 458.09,-468.1 454.59,-478.1 461.59,-478.1"/>
</g>
<!-- 5 -->
<g id="node6" class="node">
<title>5</title>
<path fill="none" stroke="#566bd8" stroke-width="2" d="M597.15,-684C597.15,-684 319.02,-684 319.02,-684 313.02,-684 307.02,-678 307.02,-672 307.02,-672 307.02,-660 307.02,-660 307.02,-654 313.02,-648 319.02,-648 319.02,-648 597.15,-648 597.15,-648 603.15,-648 609.15,-654 609.15,-660 609.15,-660 609.15,-672 609.15,-672 609.15,-678 603.15,-684 597.15,-684"/>
<text text-anchor="middle" x="458.09" y="-663" font-family="sans" font-size="10.00">aggregate_step_3_loop_1_step_3_python_pandas_step_3_main_output</text>
</g>
<!-- 5&#45;&gt;4 -->
<g id="edge10" class="edge">
<title>5&#45;&gt;4</title>
<path fill="none" stroke="grey" stroke-width="2" d="M424.73,-647.86C411.38,-639.09 397.44,-627.06 390.09,-612 383.06,-597.62 383.06,-590.38 390.09,-576 395.89,-564.11 405.79,-554.12 416.27,-546.12"/>
<polygon fill="grey" stroke="grey" stroke-width="2" points="418.58,-548.78 424.73,-540.14 414.54,-543.06 418.58,-548.78"/>
</g>
<!-- 16 -->
<g id="node17" class="node">
<title>16</title>
<path fill="none" stroke="#afd856" stroke-width="2" d="M680.83,-612C680.83,-612 411.34,-612 411.34,-612 405.34,-612 399.34,-606 399.34,-600 399.34,-600 399.34,-588 399.34,-588 399.34,-582 405.34,-576 411.34,-576 411.34,-576 680.83,-576 680.83,-576 686.83,-576 692.83,-582 692.83,-588 692.83,-588 692.83,-600 692.83,-600 692.83,-606 686.83,-612 680.83,-612"/>
<text text-anchor="middle" x="546.09" y="-591" font-family="sans" font-size="10.00">step_3_loop_2_step_3_python_pandas_step_3_main_input_validator</text>
</g>
<!-- 5&#45;&gt;16 -->
<g id="edge26" class="edge">
<title>5&#45;&gt;16</title>
<path fill="none" stroke="grey" stroke-width="2" d="M479.84,-647.7C490.92,-638.88 504.56,-628.03 516.58,-618.47"/>
<polygon fill="grey" stroke="grey" stroke-width="2" points="518.94,-621.07 524.58,-612.1 514.58,-615.59 518.94,-621.07"/>
</g>
<!-- 6 -->
<g id="node7" class="node">
<title>6</title>
<path fill="none" stroke="#56d882" stroke-width="2" d="M584.02,-756C584.02,-756 332.16,-756 332.16,-756 326.16,-756 320.16,-750 320.16,-744 320.16,-744 320.16,-732 320.16,-732 320.16,-726 326.16,-720 332.16,-720 332.16,-720 584.02,-720 584.02,-720 590.02,-720 596.02,-726 596.02,-732 596.02,-732 596.02,-744 596.02,-744 596.02,-750 590.02,-756 584.02,-756"/>
<text text-anchor="middle" x="458.09" y="-735" font-family="sans" font-size="10.00">split_step_3_loop_1_step_3_python_pandas_step_3_main_input</text>
</g>
<!-- 6&#45;&gt;5 -->
<g id="edge12" class="edge">
<title>6&#45;&gt;5</title>
<path fill="none" stroke="grey" stroke-width="2" d="M458.09,-719.7C458.09,-711.98 458.09,-702.71 458.09,-694.11"/>
<polygon fill="grey" stroke="grey" stroke-width="2" points="461.59,-694.1 458.09,-684.1 454.59,-694.1 461.59,-694.1"/>
</g>
<!-- 7 -->
<g id="node8" class="node">
<title>7</title>
<path fill="none" stroke="#56d89a" stroke-width="2" d="M499.74,-900C499.74,-900 416.43,-900 416.43,-900 410.43,-900 404.43,-894 404.43,-888 404.43,-888 404.43,-876 404.43,-876 404.43,-870 410.43,-864 416.43,-864 416.43,-864 499.74,-864 499.74,-864 505.74,-864 511.74,-870 511.74,-876 511.74,-876 511.74,-888 511.74,-888 511.74,-894 505.74,-900 499.74,-900"/>
<text text-anchor="middle" x="458.09" y="-879" font-family="sans" font-size="10.00">step_2_python_pandas</text>
</g>
<!-- 7&#45;&gt;6 -->
<g id="edge13" class="edge">
<title>7&#45;&gt;6</title>
<path fill="none" stroke="grey" stroke-width="2" d="M424.73,-863.86C411.38,-855.09 397.44,-843.06 390.09,-828 383.06,-813.62 383.06,-806.38 390.09,-792 395.89,-780.11 405.79,-770.12 416.27,-762.12"/>
<polygon fill="grey" stroke="grey" stroke-width="2" points="418.58,-764.78 424.73,-756.14 414.54,-759.06 418.58,-764.78"/>
</g>
<!-- 15 -->
<g id="node16" class="node">
<title>15</title>
<path fill="none" stroke="#56d86b" stroke-width="2" d="M680.83,-828C680.83,-828 411.34,-828 411.34,-828 405.34,-828 399.34,-822 399.34,-816 399.34,-816 399.34,-804 399.34,-804 399.34,-798 405.34,-792 411.34,-792 411.34,-792 680.83,-792 680.83,-792 686.83,-792 692.83,-798 692.83,-804 692.83,-804 692.83,-816 692.83,-816 692.83,-822 686.83,-828 680.83,-828"/>
<text text-anchor="middle" x="546.09" y="-807" font-family="sans" font-size="10.00">step_3_loop_1_step_3_python_pandas_step_3_main_input_validator</text>
</g>
<!-- 7&#45;&gt;15 -->
<g id="edge25" class="edge">
<title>7&#45;&gt;15</title>
<path fill="none" stroke="grey" stroke-width="2" d="M479.84,-863.7C490.92,-854.88 504.56,-844.03 516.58,-834.47"/>
<polygon fill="grey" stroke="grey" stroke-width="2" points="518.94,-837.07 524.58,-828.1 514.58,-831.59 518.94,-837.07"/>
</g>
<!-- 8 -->
<g id="node9" class="node">
<title>8</title>
<path fill="none" stroke="#56c1d8" stroke-width="2" d="M377.06,-1044C377.06,-1044 195.12,-1044 195.12,-1044 189.12,-1044 183.12,-1038 183.12,-1032 183.12,-1032 183.12,-1020 183.12,-1020 183.12,-1014 189.12,-1008 195.12,-1008 195.12,-1008 377.06,-1008 377.06,-1008 383.06,-1008 389.06,-1014 389.06,-1020 389.06,-1020 389.06,-1032 389.06,-1032 389.06,-1038 383.06,-1044 377.06,-1044"/>
<text text-anchor="middle" x="286.09" y="-1023" font-family="sans" font-size="10.00">step_1_parallel_split_1_step_1_python_pandas</text>
</g>
<!-- 8&#45;&gt;7 -->
<g id="edge15" class="edge">
<title>8&#45;&gt;7</title>
<path fill="none" stroke="grey" stroke-width="2" d="M306.83,-1007.87C337.44,-982.6 394.79,-935.25 429.41,-906.68"/>
<polygon fill="grey" stroke="grey" stroke-width="2" points="431.78,-909.25 437.27,-900.19 427.33,-903.86 431.78,-909.25"/>
</g>
<!-- 14 -->
<g id="node15" class="node">
<title>14</title>
<path fill="none" stroke="#56d8c1" stroke-width="2" d="M632.94,-972C632.94,-972 427.23,-972 427.23,-972 421.23,-972 415.23,-966 415.23,-960 415.23,-960 415.23,-948 415.23,-948 415.23,-942 421.23,-936 427.23,-936 427.23,-936 632.94,-936 632.94,-936 638.94,-936 644.94,-942 644.94,-948 644.94,-948 644.94,-960 644.94,-960 644.94,-966 638.94,-972 632.94,-972"/>
<text text-anchor="middle" x="530.09" y="-951" font-family="sans" font-size="10.00">step_2_python_pandas_step_2_main_input_validator</text>
</g>
<!-- 8&#45;&gt;14 -->
<g id="edge22" class="edge">
<title>8&#45;&gt;14</title>
<path fill="none" stroke="grey" stroke-width="2" d="M345.46,-1007.97C380.15,-998.01 424.1,-985.41 460.42,-974.99"/>
<polygon fill="grey" stroke="grey" stroke-width="2" points="461.8,-978.23 470.44,-972.11 459.87,-971.5 461.8,-978.23"/>
</g>
<!-- 9 -->
<g id="node10" class="node">
<title>9</title>
<path fill="none" stroke="#97d856" stroke-width="2" d="M316.26,-1116C316.26,-1116 11.91,-1116 11.91,-1116 5.91,-1116 -0.09,-1110 -0.09,-1104 -0.09,-1104 -0.09,-1092 -0.09,-1092 -0.09,-1086 5.91,-1080 11.91,-1080 11.91,-1080 316.26,-1080 316.26,-1080 322.26,-1080 328.26,-1086 328.26,-1092 328.26,-1092 328.26,-1104 328.26,-1104 328.26,-1110 322.26,-1116 316.26,-1116"/>
<text text-anchor="middle" x="164.09" y="-1095" font-family="sans" font-size="10.00">step_1_parallel_split_1_step_1_python_pandas_step_1_main_input_validator</text>
</g>
<!-- 9&#45;&gt;8 -->
<g id="edge19" class="edge">
<title>9&#45;&gt;8</title>
<path fill="none" stroke="grey" stroke-width="2" d="M193.93,-1079.88C210.03,-1070.64 230.09,-1059.13 247.37,-1049.21"/>
<polygon fill="grey" stroke="grey" stroke-width="2" points="249.2,-1052.2 256.13,-1044.19 245.71,-1046.13 249.2,-1052.2"/>
</g>
<!-- 10 -->
<g id="node11" class="node">
<title>10</title>
<path fill="none" stroke="#56d8a9" stroke-width="2" d="M601.06,-1044C601.06,-1044 419.12,-1044 419.12,-1044 413.12,-1044 407.12,-1038 407.12,-1032 407.12,-1032 407.12,-1020 407.12,-1020 407.12,-1014 413.12,-1008 419.12,-1008 419.12,-1008 601.06,-1008 601.06,-1008 607.06,-1008 613.06,-1014 613.06,-1020 613.06,-1020 613.06,-1032 613.06,-1032 613.06,-1038 607.06,-1044 601.06,-1044"/>
<text text-anchor="middle" x="510.09" y="-1023" font-family="sans" font-size="10.00">step_1_parallel_split_2_step_1_python_pandas</text>
</g>
<!-- 10&#45;&gt;7 -->
<g id="edge16" class="edge">
<title>10&#45;&gt;7</title>
<path fill="none" stroke="grey" stroke-width="2" d="M450.36,-1007.96C433.06,-999.95 416.14,-988.42 406.09,-972 397.73,-958.36 400.03,-950.81 406.09,-936 410.57,-925.02 418.56,-915.08 426.94,-906.86"/>
<polygon fill="grey" stroke="grey" stroke-width="2" points="429.32,-909.42 434.33,-900.09 424.59,-904.26 429.32,-909.42"/>
</g>
<!-- 10&#45;&gt;14 -->
<g id="edge23" class="edge">
<title>10&#45;&gt;14</title>
<path fill="none" stroke="grey" stroke-width="2" d="M515.03,-1007.7C517.26,-999.9 519.94,-990.51 522.42,-981.83"/>
<polygon fill="grey" stroke="grey" stroke-width="2" points="525.82,-982.68 525.2,-972.1 519.09,-980.76 525.82,-982.68"/>
</g>
<!-- 11 -->
<g id="node12" class="node">
<title>11</title>
<path fill="none" stroke="#d8ac56" stroke-width="2" d="M662.26,-1116C662.26,-1116 357.91,-1116 357.91,-1116 351.91,-1116 345.91,-1110 345.91,-1104 345.91,-1104 345.91,-1092 345.91,-1092 345.91,-1086 351.91,-1080 357.91,-1080 357.91,-1080 662.26,-1080 662.26,-1080 668.26,-1080 674.26,-1086 674.26,-1092 674.26,-1092 674.26,-1104 674.26,-1104 674.26,-1110 668.26,-1116 662.26,-1116"/>
<text text-anchor="middle" x="510.09" y="-1095" font-family="sans" font-size="10.00">step_1_parallel_split_2_step_1_python_pandas_step_1_main_input_validator</text>
</g>
<!-- 11&#45;&gt;10 -->
<g id="edge20" class="edge">
<title>11&#45;&gt;10</title>
<path fill="none" stroke="grey" stroke-width="2" d="M510.09,-1079.7C510.09,-1071.98 510.09,-1062.71 510.09,-1054.11"/>
<polygon fill="grey" stroke="grey" stroke-width="2" points="513.59,-1054.1 510.09,-1044.1 506.59,-1054.1 513.59,-1054.1"/>
</g>
<!-- 12 -->
<g id="node13" class="node">
<title>12</title>
<path fill="none" stroke="#d85656" stroke-width="2" d="M825.06,-1044C825.06,-1044 643.12,-1044 643.12,-1044 637.12,-1044 631.12,-1038 631.12,-1032 631.12,-1032 631.12,-1020 631.12,-1020 631.12,-1014 637.12,-1008 643.12,-1008 643.12,-1008 825.06,-1008 825.06,-1008 831.06,-1008 837.06,-1014 837.06,-1020 837.06,-1020 837.06,-1032 837.06,-1032 837.06,-1038 831.06,-1044 825.06,-1044"/>
<text text-anchor="middle" x="734.09" y="-1023" font-family="sans" font-size="10.00">step_1_parallel_split_3_step_1_python_pandas</text>
</g>
<!-- 12&#45;&gt;7 -->
<g id="edge17" class="edge">
<title>12&#45;&gt;7</title>
<path fill="none" stroke="grey" stroke-width="2" d="M723.25,-1007.88C709.58,-987.68 684.17,-954.5 654.09,-936 613.95,-911.32 562.29,-897.96 522.08,-890.83"/>
<polygon fill="grey" stroke="grey" stroke-width="2" points="522.56,-887.36 512.12,-889.15 521.4,-894.27 522.56,-887.36"/>
</g>
<!-- 12&#45;&gt;14 -->
<g id="edge24" class="edge">
<title>12&#45;&gt;14</title>
<path fill="none" stroke="grey" stroke-width="2" d="M684.44,-1007.97C655.82,-998.14 619.64,-985.73 589.51,-975.39"/>
<polygon fill="grey" stroke="grey" stroke-width="2" points="590.55,-972.05 579.95,-972.11 588.27,-978.67 590.55,-972.05"/>
</g>
<!-- 13 -->
<g id="node14" class="node">
<title>13</title>
<path fill="none" stroke="#569ad8" stroke-width="2" d="M1008.26,-1116C1008.26,-1116 703.91,-1116 703.91,-1116 697.91,-1116 691.91,-1110 691.91,-1104 691.91,-1104 691.91,-1092 691.91,-1092 691.91,-1086 697.91,-1080 703.91,-1080 703.91,-1080 1008.26,-1080 1008.26,-1080 1014.26,-1080 1020.26,-1086 1020.26,-1092 1020.26,-1092 1020.26,-1104 1020.26,-1104 1020.26,-1110 1014.26,-1116 1008.26,-1116"/>
<text text-anchor="middle" x="856.09" y="-1095" font-family="sans" font-size="10.00">step_1_parallel_split_3_step_1_python_pandas_step_1_main_input_validator</text>
</g>
<!-- 13&#45;&gt;12 -->
<g id="edge21" class="edge">
<title>13&#45;&gt;12</title>
<path fill="none" stroke="grey" stroke-width="2" d="M826.24,-1079.88C810.14,-1070.64 790.09,-1059.13 772.8,-1049.21"/>
<polygon fill="grey" stroke="grey" stroke-width="2" points="774.46,-1046.13 764.05,-1044.19 770.98,-1052.2 774.46,-1046.13"/>
</g>
<!-- 14&#45;&gt;7 -->
<g id="edge18" class="edge">
<title>14&#45;&gt;7</title>
<path fill="none" stroke="grey" stroke-width="2" d="M512.29,-935.7C503.48,-927.14 492.7,-916.66 483.09,-907.3"/>
<polygon fill="grey" stroke="grey" stroke-width="2" points="485.29,-904.57 475.68,-900.1 480.41,-909.58 485.29,-904.57"/>
</g>
<!-- 15&#45;&gt;6 -->
<g id="edge14" class="edge">
<title>15&#45;&gt;6</title>
<path fill="none" stroke="grey" stroke-width="2" d="M524.33,-791.7C513.25,-782.88 499.61,-772.03 487.6,-762.47"/>
<polygon fill="grey" stroke="grey" stroke-width="2" points="489.59,-759.59 479.59,-756.1 485.24,-765.07 489.59,-759.59"/>
</g>
<!-- 16&#45;&gt;4 -->
<g id="edge11" class="edge">
<title>16&#45;&gt;4</title>
<path fill="none" stroke="grey" stroke-width="2" d="M524.33,-575.7C513.25,-566.88 499.61,-556.03 487.6,-546.47"/>
<polygon fill="grey" stroke="grey" stroke-width="2" points="489.59,-543.59 479.59,-540.1 485.24,-549.07 489.59,-543.59"/>
</g>
<!-- 17 -->
<g id="node18" class="node">
<title>17</title>
<path fill="none" stroke="#68d856" stroke-width="2" d="M630.86,-396C630.86,-396 395.31,-396 395.31,-396 389.31,-396 383.31,-390 383.31,-384 383.31,-384 383.31,-372 383.31,-372 383.31,-366 389.31,-360 395.31,-360 395.31,-360 630.86,-360 630.86,-360 636.86,-360 642.86,-366 642.86,-372 642.86,-372 642.86,-384 642.86,-384 642.86,-390 636.86,-396 630.86,-396"/>
<text text-anchor="middle" x="513.09" y="-375" font-family="sans" font-size="10.00">step_4a_python_pandas_step_4a_secondary_input_validator</text>
</g>
<!-- 17&#45;&gt;2 -->
<g id="edge7" class="edge">
<title>17&#45;&gt;2</title>
<path fill="none" stroke="grey" stroke-width="2" d="M513.09,-359.7C513.09,-351.98 513.09,-342.71 513.09,-334.11"/>
<polygon fill="grey" stroke="grey" stroke-width="2" points="516.59,-334.1 513.09,-324.1 509.59,-334.1 516.59,-334.1"/>
</g>
<!-- 18&#45;&gt;2 -->
<g id="edge8" class="edge">
<title>18&#45;&gt;2</title>
<path fill="none" stroke="grey" stroke-width="2" d="M311.06,-359.97C352.36,-349.14 405.66,-335.16 447.15,-324.29"/>
<polygon fill="grey" stroke="grey" stroke-width="2" points="448.1,-327.66 456.88,-321.73 446.32,-320.88 448.1,-327.66"/>
</g>
<!-- 19 -->
<g id="node20" class="node">
<title>19</title>
<path fill="none" stroke="#59d856" stroke-width="2" d="M686.49,-252C686.49,-252 449.69,-252 449.69,-252 443.69,-252 437.69,-246 437.69,-240 437.69,-240 437.69,-228 437.69,-228 437.69,-222 443.69,-216 449.69,-216 449.69,-216 686.49,-216 686.49,-216 692.49,-216 698.49,-222 698.49,-228 698.49,-228 698.49,-240 698.49,-240 698.49,-246 692.49,-252 686.49,-252"/>
<text text-anchor="middle" x="568.09" y="-231" font-family="sans" font-size="10.00">step_4b_python_pandas_step_4b_secondary_input_validator</text>
</g>
<!-- 19&#45;&gt;1 -->
<g id="edge4" class="edge">
<title>19&#45;&gt;1</title>
<path fill="none" stroke="grey" stroke-width="2" d="M568.09,-215.7C568.09,-207.98 568.09,-198.71 568.09,-190.11"/>
<polygon fill="grey" stroke="grey" stroke-width="2" points="571.59,-190.1 568.09,-180.1 564.59,-190.1 571.59,-190.1"/>
</g>
<!-- 20&#45;&gt;1 -->
<g id="edge5" class="edge">
<title>20&#45;&gt;1</title>
<path fill="none" stroke="grey" stroke-width="2" d="M365.3,-215.97C406.76,-205.14 460.26,-191.16 501.9,-180.29"/>
<polygon fill="grey" stroke="grey" stroke-width="2" points="502.88,-183.65 511.67,-177.73 501.11,-176.88 502.88,-183.65"/>
</g>
<!-- 21&#45;&gt;0 -->
<g id="edge2" class="edge">
<title>21&#45;&gt;0</title>
<path fill="none" stroke="grey" stroke-width="2" d="M604.22,-71.7C598.58,-63.47 591.73,-53.48 585.52,-44.42"/>
<polygon fill="grey" stroke="grey" stroke-width="2" points="588.36,-42.37 579.82,-36.1 582.58,-46.33 588.36,-42.37"/>
</g>
</g>
</svg>
