<?xml version="1.0" encoding="UTF-8" standalone="no"?>
<!DOCTYPE svg PUBLIC "-//W3C//DTD SVG 1.1//EN"
 "http://www.w3.org/Graphics/SVG/1.1/DTD/svg11.dtd">
<!-- Generated by graphviz version 12.2.1 (20250203.1708)
 -->
<!-- Title: snakemake_dag Pages: 1 -->
<svg width="853pt" height="764pt"
 viewBox="0.00 0.00 852.75 764.00" xmlns="http://www.w3.org/2000/svg" xmlns:xlink="http://www.w3.org/1999/xlink">
<g id="graph0" class="graph" transform="scale(1 1) rotate(0) translate(4 760)">
<title>snakemake_dag</title>
<polygon fill="white" stroke="none" points="-4,4 -4,-760 848.75,-760 848.75,4 -4,4"/>
<!-- 0 -->
<g id="node1" class="node">
<title>0</title>
<path fill="none" stroke="#61d856" stroke-width="2" d="M489.25,-36C489.25,-36 459.25,-36 459.25,-36 453.25,-36 447.25,-30 447.25,-24 447.25,-24 447.25,-12 447.25,-12 447.25,-6 453.25,0 459.25,0 459.25,0 489.25,0 489.25,0 495.25,0 501.25,-6 501.25,-12 501.25,-12 501.25,-24 501.25,-24 501.25,-30 495.25,-36 489.25,-36"/>
<text text-anchor="middle" x="474.25" y="-14.88" font-family="sans" font-size="10.00">all</text>
</g>
<!-- 1 -->
<g id="node2" class="node">
<title>1</title>
<path fill="none" stroke="#56c1d8" stroke-width="2" d="M283.12,-180C283.12,-180 179.38,-180 179.38,-180 173.38,-180 167.38,-174 167.38,-168 167.38,-168 167.38,-156 167.38,-156 167.38,-150 173.38,-144 179.38,-144 179.38,-144 283.12,-144 283.12,-144 289.12,-144 295.12,-150 295.12,-156 295.12,-156 295.12,-168 295.12,-168 295.12,-174 289.12,-180 283.12,-180"/>
<text text-anchor="middle" x="231.25" y="-158.88" font-family="sans" font-size="10.00">step_4_python_pandas</text>
</g>
<!-- 1&#45;&gt;0 -->
<g id="edge1" class="edge">
<title>1&#45;&gt;0</title>
<path fill="none" stroke="grey" stroke-width="2" d="M208.92,-143.07C188.06,-124.19 162.73,-94.17 181.25,-72 212.99,-34 361.31,-23.19 433.95,-20.16"/>
<polygon fill="grey" stroke="grey" stroke-width="2" points="433.71,-23.67 443.57,-19.79 433.44,-16.68 433.71,-23.67"/>
</g>
<!-- 11 -->
<g id="node12" class="node">
<title>11</title>
<path fill="none" stroke="#80d856" stroke-width="2" d="M336.12,-108C336.12,-108 202.38,-108 202.38,-108 196.38,-108 190.38,-102 190.38,-96 190.38,-96 190.38,-84 190.38,-84 190.38,-78 196.38,-72 202.38,-72 202.38,-72 336.12,-72 336.12,-72 342.12,-72 348.12,-78 348.12,-84 348.12,-84 348.12,-96 348.12,-96 348.12,-102 342.12,-108 336.12,-108"/>
<text text-anchor="middle" x="269.25" y="-86.88" font-family="sans" font-size="10.00">results_main_input_validator</text>
</g>
<!-- 1&#45;&gt;11 -->
<g id="edge19" class="edge">
<title>1&#45;&gt;11</title>
<path fill="none" stroke="grey" stroke-width="2" d="M240.84,-143.34C244.64,-136.34 249.1,-128.12 253.36,-120.28"/>
<polygon fill="grey" stroke="grey" stroke-width="2" points="256.39,-122.02 258.09,-111.56 250.24,-118.68 256.39,-122.02"/>
</g>
<!-- 12 -->
<g id="node13" class="node">
<title>12</title>
<path fill="none" stroke="#b6d856" stroke-width="2" d="M450.38,-108C450.38,-108 378.12,-108 378.12,-108 372.12,-108 366.12,-102 366.12,-96 366.12,-96 366.12,-84 366.12,-84 366.12,-78 372.12,-72 378.12,-72 378.12,-72 450.38,-72 450.38,-72 456.38,-72 462.38,-78 462.38,-84 462.38,-84 462.38,-96 462.38,-96 462.38,-102 456.38,-108 450.38,-108"/>
<text text-anchor="middle" x="414.25" y="-86.88" font-family="sans" font-size="10.00">terminate_spark</text>
</g>
<!-- 1&#45;&gt;12 -->
<g id="edge20" class="edge">
<title>1&#45;&gt;12</title>
<path fill="none" stroke="grey" stroke-width="2" d="M277.9,-143.15C301.47,-134.14 330.32,-123.11 355.4,-113.51"/>
<polygon fill="grey" stroke="grey" stroke-width="2" points="356.45,-116.86 364.54,-110.02 353.95,-110.32 356.45,-116.86"/>
</g>
<!-- 2 -->
<g id="node3" class="node">
<title>2</title>
<path fill="none" stroke="#56d8d0" stroke-width="2" d="M278.5,-324C278.5,-324 12,-324 12,-324 6,-324 0,-318 0,-312 0,-312 0,-300 0,-300 0,-294 6,-288 12,-288 12,-288 278.5,-288 278.5,-288 284.5,-288 290.5,-294 290.5,-300 290.5,-300 290.5,-312 290.5,-312 290.5,-318 284.5,-324 278.5,-324"/>
<text text-anchor="middle" x="145.25" y="-302.88" font-family="sans" font-size="10.00">aggregate_step_3_python_pyspark_step_3_main_output</text>
</g>
<!-- 2&#45;&gt;1 -->
<g id="edge7" class="edge">
<title>2&#45;&gt;1</title>
<path fill="none" stroke="grey" stroke-width="2" d="M113.96,-287.09C101.68,-278.26 88.95,-266.38 82.25,-252 75.5,-237.49 73.02,-229.07 82.25,-216 98.86,-192.46 126.89,-179.31 154.18,-172"/>
<polygon fill="grey" stroke="grey" stroke-width="2" points="154.77,-175.45 163.68,-169.73 153.14,-168.65 154.77,-175.45"/>
</g>
<!-- 10 -->
<g id="node11" class="node">
<title>10</title>
<path fill="none" stroke="#56a9d8" stroke-width="2" d="M353.25,-252C353.25,-252 103.25,-252 103.25,-252 97.25,-252 91.25,-246 91.25,-240 91.25,-240 91.25,-228 91.25,-228 91.25,-222 97.25,-216 103.25,-216 103.25,-216 353.25,-216 353.25,-216 359.25,-216 365.25,-222 365.25,-228 365.25,-228 365.25,-240 365.25,-240 365.25,-246 359.25,-252 353.25,-252"/>
<text text-anchor="middle" x="228.25" y="-230.88" font-family="sans" font-size="10.00">step_4_python_pandas_step_4_main_input_validator</text>
</g>
<!-- 2&#45;&gt;10 -->
<g id="edge18" class="edge">
<title>2&#45;&gt;10</title>
<path fill="none" stroke="grey" stroke-width="2" d="M166.19,-287.34C175.56,-279.44 186.79,-269.96 197.11,-261.26"/>
<polygon fill="grey" stroke="grey" stroke-width="2" points="199.32,-263.98 204.71,-254.85 194.81,-258.62 199.32,-263.98"/>
</g>
<!-- 3 -->
<g id="node4" class="node">
<title>3</title>
<path fill="none" stroke="#5673d8" stroke-width="2" d="M260.88,-396C260.88,-396 29.62,-396 29.62,-396 23.62,-396 17.62,-390 17.62,-384 17.62,-384 17.62,-372 17.62,-372 17.62,-366 23.62,-360 29.62,-360 29.62,-360 260.88,-360 260.88,-360 266.88,-360 272.88,-366 272.88,-372 272.88,-372 272.88,-384 272.88,-384 272.88,-390 266.88,-396 260.88,-396"/>
<text text-anchor="middle" x="145.25" y="-374.88" font-family="sans" font-size="10.00">split_step_3_python_pyspark_step_3_main_input</text>
</g>
<!-- 3&#45;&gt;2 -->
<g id="edge10" class="edge">
<title>3&#45;&gt;2</title>
<path fill="none" stroke="grey" stroke-width="2" d="M145.25,-359.34C145.25,-352.75 145.25,-345.08 145.25,-337.67"/>
<polygon fill="grey" stroke="grey" stroke-width="2" points="148.75,-337.93 145.25,-327.93 141.75,-337.93 148.75,-337.93"/>
</g>
<!-- 4 -->
<g id="node5" class="node">
<title>4</title>
<path fill="none" stroke="#d88d56" stroke-width="2" d="M161.88,-540C161.88,-540 128.62,-540 128.62,-540 122.62,-540 116.62,-534 116.62,-528 116.62,-528 116.62,-516 116.62,-516 116.62,-510 122.62,-504 128.62,-504 128.62,-504 161.88,-504 161.88,-504 167.88,-504 173.88,-510 173.88,-516 173.88,-516 173.88,-528 173.88,-528 173.88,-534 167.88,-540 161.88,-540"/>
<text text-anchor="middle" x="145.25" y="-518.88" font-family="sans" font-size="10.00">step_2_r</text>
</g>
<!-- 4&#45;&gt;3 -->
<g id="edge11" class="edge">
<title>4&#45;&gt;3</title>
<path fill="none" stroke="grey" stroke-width="2" d="M115.82,-504.83C102.66,-495.87 88.49,-483.4 81.25,-468 74.44,-453.52 74.44,-446.48 81.25,-432 86.2,-421.47 94.38,-412.32 103.27,-404.71"/>
<polygon fill="grey" stroke="grey" stroke-width="2" points="105.32,-407.55 111.08,-398.66 101.03,-402.02 105.32,-407.55"/>
</g>
<!-- 8 -->
<g id="node9" class="node">
<title>8</title>
<path fill="none" stroke="#56d882" stroke-width="2" d="M356.12,-468C356.12,-468 102.38,-468 102.38,-468 96.38,-468 90.38,-462 90.38,-456 90.38,-456 90.38,-444 90.38,-444 90.38,-438 96.38,-432 102.38,-432 102.38,-432 356.12,-432 356.12,-432 362.12,-432 368.12,-438 368.12,-444 368.12,-444 368.12,-456 368.12,-456 368.12,-462 362.12,-468 356.12,-468"/>
<text text-anchor="middle" x="229.25" y="-446.88" font-family="sans" font-size="10.00">step_3_python_pyspark_step_3_main_input_validator</text>
</g>
<!-- 4&#45;&gt;8 -->
<g id="edge17" class="edge">
<title>4&#45;&gt;8</title>
<path fill="none" stroke="grey" stroke-width="2" d="M166.45,-503.34C176.02,-495.36 187.53,-485.77 198.06,-476.99"/>
<polygon fill="grey" stroke="grey" stroke-width="2" points="200,-479.93 205.44,-470.84 195.52,-474.55 200,-479.93"/>
</g>
<!-- 5 -->
<g id="node6" class="node">
<title>5</title>
<path fill="none" stroke="#97d856" stroke-width="2" d="M197.12,-684C197.12,-684 93.38,-684 93.38,-684 87.38,-684 81.38,-678 81.38,-672 81.38,-672 81.38,-660 81.38,-660 81.38,-654 87.38,-648 93.38,-648 93.38,-648 197.12,-648 197.12,-648 203.12,-648 209.12,-654 209.12,-660 209.12,-660 209.12,-672 209.12,-672 209.12,-678 203.12,-684 197.12,-684"/>
<text text-anchor="middle" x="145.25" y="-662.88" font-family="sans" font-size="10.00">step_1_python_pandas</text>
</g>
<!-- 5&#45;&gt;4 -->
<g id="edge13" class="edge">
<title>5&#45;&gt;4</title>
<path fill="none" stroke="grey" stroke-width="2" d="M123.94,-647.14C114.45,-637.78 104.28,-625.47 99.25,-612 93.65,-597.01 93.65,-590.99 99.25,-576 102.75,-566.64 108.73,-557.83 115.24,-550.19"/>
<polygon fill="grey" stroke="grey" stroke-width="2" points="117.62,-552.77 121.88,-543.07 112.5,-547.99 117.62,-552.77"/>
</g>
<!-- 7 -->
<g id="node8" class="node">
<title>7</title>
<path fill="none" stroke="#d8c356" stroke-width="2" d="M300,-612C300,-612 120.5,-612 120.5,-612 114.5,-612 108.5,-606 108.5,-600 108.5,-600 108.5,-588 108.5,-588 108.5,-582 114.5,-576 120.5,-576 120.5,-576 300,-576 300,-576 306,-576 312,-582 312,-588 312,-588 312,-600 312,-600 312,-606 306,-612 300,-612"/>
<text text-anchor="middle" x="210.25" y="-590.88" font-family="sans" font-size="10.00">step_2_r_step_2_main_input_validator</text>
</g>
<!-- 5&#45;&gt;7 -->
<g id="edge16" class="edge">
<title>5&#45;&gt;7</title>
<path fill="none" stroke="grey" stroke-width="2" d="M161.65,-647.34C168.68,-639.77 177.05,-630.75 184.85,-622.35"/>
<polygon fill="grey" stroke="grey" stroke-width="2" points="187.33,-624.83 191.57,-615.12 182.2,-620.07 187.33,-624.83"/>
</g>
<!-- 6 -->
<g id="node7" class="node">
<title>6</title>
<path fill="none" stroke="#568ad8" stroke-width="2" d="M270.25,-756C270.25,-756 20.25,-756 20.25,-756 14.25,-756 8.25,-750 8.25,-744 8.25,-744 8.25,-732 8.25,-732 8.25,-726 14.25,-720 20.25,-720 20.25,-720 270.25,-720 270.25,-720 276.25,-720 282.25,-726 282.25,-732 282.25,-732 282.25,-744 282.25,-744 282.25,-750 276.25,-756 270.25,-756"/>
<text text-anchor="middle" x="145.25" y="-734.88" font-family="sans" font-size="10.00">step_1_python_pandas_step_1_main_input_validator</text>
</g>
<!-- 6&#45;&gt;5 -->
<g id="edge15" class="edge">
<title>6&#45;&gt;5</title>
<path fill="none" stroke="grey" stroke-width="2" d="M145.25,-719.34C145.25,-712.75 145.25,-705.08 145.25,-697.67"/>
<polygon fill="grey" stroke="grey" stroke-width="2" points="148.75,-697.93 145.25,-687.93 141.75,-697.93 148.75,-697.93"/>
</g>
<!-- 7&#45;&gt;4 -->
<g id="edge14" class="edge">
<title>7&#45;&gt;4</title>
<path fill="none" stroke="grey" stroke-width="2" d="M193.85,-575.34C186.82,-567.77 178.45,-558.75 170.65,-550.35"/>
<polygon fill="grey" stroke="grey" stroke-width="2" points="173.3,-548.07 163.93,-543.12 168.17,-552.83 173.3,-548.07"/>
</g>
<!-- 8&#45;&gt;3 -->
<g id="edge12" class="edge">
<title>8&#45;&gt;3</title>
<path fill="none" stroke="grey" stroke-width="2" d="M208.05,-431.34C198.48,-423.36 186.97,-413.77 176.44,-404.99"/>
<polygon fill="grey" stroke="grey" stroke-width="2" points="178.98,-402.55 169.06,-398.84 174.5,-407.93 178.98,-402.55"/>
</g>
<!-- 9 -->
<g id="node10" class="node">
<title>9</title>
<path fill="none" stroke="#d8ac56" stroke-width="2" d="M671,-252C671,-252 395.5,-252 395.5,-252 389.5,-252 383.5,-246 383.5,-240 383.5,-240 383.5,-228 383.5,-228 383.5,-222 389.5,-216 395.5,-216 395.5,-216 671,-216 671,-216 677,-216 683,-222 683,-228 683,-228 683,-240 683,-240 683,-246 677,-252 671,-252"/>
<text text-anchor="middle" x="533.25" y="-230.88" font-family="sans" font-size="10.00">step_4_python_pandas_step_4_secondary_input_validator</text>
</g>
<!-- 9&#45;&gt;1 -->
<g id="edge8" class="edge">
<title>9&#45;&gt;1</title>
<path fill="none" stroke="grey" stroke-width="2" d="M455.87,-215.06C410.5,-204.55 353.4,-191.31 308.12,-180.82"/>
<polygon fill="grey" stroke="grey" stroke-width="2" points="309.16,-177.47 298.63,-178.62 307.58,-184.29 309.16,-177.47"/>
</g>
<!-- 10&#45;&gt;1 -->
<g id="edge9" class="edge">
<title>10&#45;&gt;1</title>
<path fill="none" stroke="grey" stroke-width="2" d="M229.01,-215.34C229.29,-208.75 229.62,-201.08 229.94,-193.67"/>
<polygon fill="grey" stroke="grey" stroke-width="2" points="233.42,-194.07 230.35,-183.93 226.43,-193.77 233.42,-194.07"/>
</g>
<!-- 11&#45;&gt;0 -->
<g id="edge2" class="edge">
<title>11&#45;&gt;0</title>
<path fill="none" stroke="grey" stroke-width="2" d="M321.78,-71.06C356.86,-59.08 402.29,-43.57 434.4,-32.61"/>
<polygon fill="grey" stroke="grey" stroke-width="2" points="435.23,-36.02 443.57,-29.48 432.97,-29.4 435.23,-36.02"/>
</g>
<!-- 12&#45;&gt;0 -->
<g id="edge3" class="edge">
<title>12&#45;&gt;0</title>
<path fill="none" stroke="grey" stroke-width="2" d="M429.39,-71.34C435.81,-63.85 443.44,-54.95 450.57,-46.63"/>
<polygon fill="grey" stroke="grey" stroke-width="2" points="453.09,-49.07 456.94,-39.2 447.77,-44.51 453.09,-49.07"/>
</g>
<!-- 13 -->
<g id="node14" class="node">
<title>13</title>
<path fill="none" stroke="#ced856" stroke-width="2" d="M578.5,-108C578.5,-108 492,-108 492,-108 486,-108 480,-102 480,-96 480,-96 480,-84 480,-84 480,-78 486,-72 492,-72 492,-72 578.5,-72 578.5,-72 584.5,-72 590.5,-78 590.5,-84 590.5,-84 590.5,-96 590.5,-96 590.5,-102 584.5,-108 578.5,-108"/>
<text text-anchor="middle" x="535.25" y="-86.88" font-family="sans" font-size="10.00">start_spark_master</text>
</g>
<!-- 13&#45;&gt;0 -->
<g id="edge4" class="edge">
<title>13&#45;&gt;0</title>
<path fill="none" stroke="grey" stroke-width="2" d="M519.86,-71.34C513.33,-63.85 505.58,-54.95 498.33,-46.63"/>
<polygon fill="grey" stroke="grey" stroke-width="2" points="501.05,-44.42 491.84,-39.18 495.77,-49.02 501.05,-44.42"/>
</g>
<!-- 14 -->
<g id="node15" class="node">
<title>14</title>
<path fill="none" stroke="#56d8b9" stroke-width="2" d="M705.75,-108C705.75,-108 620.75,-108 620.75,-108 614.75,-108 608.75,-102 608.75,-96 608.75,-96 608.75,-84 608.75,-84 608.75,-78 614.75,-72 620.75,-72 620.75,-72 705.75,-72 705.75,-72 711.75,-72 717.75,-78 717.75,-84 717.75,-84 717.75,-96 717.75,-96 717.75,-102 711.75,-108 705.75,-108"/>
<text text-anchor="middle" x="663.25" y="-93.25" font-family="sans" font-size="10.00">start_spark_worker</text>
<text text-anchor="middle" x="663.25" y="-80.5" font-family="sans" font-size="10.00">scatteritem: 1&#45;of&#45;2</text>
</g>
<!-- 14&#45;&gt;0 -->
<g id="edge5" class="edge">
<title>14&#45;&gt;0</title>
<path fill="none" stroke="grey" stroke-width="2" d="M615.07,-71.15C583.78,-59.57 543.48,-44.64 514.02,-33.73"/>
<polygon fill="grey" stroke="grey" stroke-width="2" points="515.54,-30.56 504.95,-30.37 513.11,-37.13 515.54,-30.56"/>
</g>
<!-- 15 -->
<g id="node16" class="node">
<title>15</title>
<path fill="none" stroke="#56d89a" stroke-width="2" d="M817.12,-252C817.12,-252 713.38,-252 713.38,-252 707.38,-252 701.38,-246 701.38,-240 701.38,-240 701.38,-228 701.38,-228 701.38,-222 707.38,-216 713.38,-216 713.38,-216 817.12,-216 817.12,-216 823.12,-216 829.12,-222 829.12,-228 829.12,-228 829.12,-240 829.12,-240 829.12,-246 823.12,-252 817.12,-252"/>
<text text-anchor="middle" x="765.25" y="-230.88" font-family="sans" font-size="10.00">wait_for_spark_master</text>
</g>
<!-- 15&#45;&gt;14 -->
<g id="edge21" class="edge">
<title>15&#45;&gt;14</title>
<path fill="none" stroke="grey" stroke-width="2" d="M723.79,-215.07C708.58,-206.54 692.58,-194.89 682.25,-180 670.48,-163.03 665.78,-140.2 663.99,-121.9"/>
<polygon fill="grey" stroke="grey" stroke-width="2" points="667.49,-121.74 663.33,-111.99 660.5,-122.2 667.49,-121.74"/>
</g>
<!-- 16 -->
<g id="node17" class="node">
<title>16</title>
<path fill="none" stroke="#56d863" stroke-width="2" d="M759.5,-180C759.5,-180 703,-180 703,-180 697,-180 691,-174 691,-168 691,-168 691,-156 691,-156 691,-150 697,-144 703,-144 703,-144 759.5,-144 759.5,-144 765.5,-144 771.5,-150 771.5,-156 771.5,-156 771.5,-168 771.5,-168 771.5,-174 765.5,-180 759.5,-180"/>
<text text-anchor="middle" x="731.25" y="-158.88" font-family="sans" font-size="10.00">split_workers</text>
</g>
<!-- 15&#45;&gt;16 -->
<g id="edge23" class="edge">
<title>15&#45;&gt;16</title>
<path fill="none" stroke="grey" stroke-width="2" d="M756.67,-215.34C753.31,-208.43 749.37,-200.31 745.61,-192.56"/>
<polygon fill="grey" stroke="grey" stroke-width="2" points="748.79,-191.09 741.27,-183.62 742.49,-194.15 748.79,-191.09"/>
</g>
<!-- 17 -->
<g id="node18" class="node">
<title>17</title>
<path fill="none" stroke="#56d8b9" stroke-width="2" d="M832.75,-108C832.75,-108 747.75,-108 747.75,-108 741.75,-108 735.75,-102 735.75,-96 735.75,-96 735.75,-84 735.75,-84 735.75,-78 741.75,-72 747.75,-72 747.75,-72 832.75,-72 832.75,-72 838.75,-72 844.75,-78 844.75,-84 844.75,-84 844.75,-96 844.75,-96 844.75,-102 838.75,-108 832.75,-108"/>
<text text-anchor="middle" x="790.25" y="-93.25" font-family="sans" font-size="10.00">start_spark_worker</text>
<text text-anchor="middle" x="790.25" y="-80.5" font-family="sans" font-size="10.00">scatteritem: 2&#45;of&#45;2</text>
</g>
<!-- 15&#45;&gt;17 -->
<g id="edge24" class="edge">
<title>15&#45;&gt;17</title>
<path fill="none" stroke="grey" stroke-width="2" d="M771.13,-215.03C774.26,-204.85 777.93,-191.82 780.25,-180 784.01,-160.83 786.49,-139.05 788.04,-121.82"/>
<polygon fill="grey" stroke="grey" stroke-width="2" points="791.53,-122.13 788.86,-111.88 784.55,-121.56 791.53,-122.13"/>
</g>
<!-- 16&#45;&gt;14 -->
<g id="edge22" class="edge">
<title>16&#45;&gt;14</title>
<path fill="none" stroke="grey" stroke-width="2" d="M714.09,-143.34C706.66,-135.69 697.79,-126.56 689.56,-118.08"/>
<polygon fill="grey" stroke="grey" stroke-width="2" points="692.23,-115.81 682.75,-111.07 687.21,-120.68 692.23,-115.81"/>
</g>
<!-- 16&#45;&gt;17 -->
<g id="edge25" class="edge">
<title>16&#45;&gt;17</title>
<path fill="none" stroke="grey" stroke-width="2" d="M746.14,-143.34C752.45,-135.85 759.95,-126.95 766.96,-118.63"/>
<polygon fill="grey" stroke="grey" stroke-width="2" points="769.44,-121.12 773.21,-111.22 764.09,-116.61 769.44,-121.12"/>
</g>
<!-- 17&#45;&gt;0 -->
<g id="edge6" class="edge">
<title>17&#45;&gt;0</title>
<path fill="none" stroke="grey" stroke-width="2" d="M734.98,-73.89C732.37,-73.24 729.78,-72.61 727.25,-72 652.53,-54.11 564.6,-36.44 514.54,-26.7"/>
<polygon fill="grey" stroke="grey" stroke-width="2" points="515.52,-23.33 505.04,-24.86 514.19,-30.2 515.52,-23.33"/>
</g>
</g>
</svg>
