<?xml version="1.0" encoding="UTF-8" standalone="no"?>
<!DOCTYPE svg PUBLIC "-//W3C//DTD SVG 1.1//EN"
 "http://www.w3.org/Graphics/SVG/1.1/DTD/svg11.dtd">
<!-- Generated by graphviz version 12.2.1 (20250203.1708)
 -->
<!-- Title: snakemake_dag Pages: 1 -->
<svg width="941pt" height="764pt"
 viewBox="0.00 0.00 941.00 764.00" xmlns="http://www.w3.org/2000/svg" xmlns:xlink="http://www.w3.org/1999/xlink">
<g id="graph0" class="graph" transform="scale(1 1) rotate(0) translate(4 760)">
<title>snakemake_dag</title>
<polygon fill="white" stroke="none" points="-4,4 -4,-760 937,-760 937,4 -4,4"/>
<!-- 0 -->
<g id="node1" class="node">
<title>0</title>
<path fill="none" stroke="#568ad8" stroke-width="2" d="M733.75,-36C733.75,-36 703.75,-36 703.75,-36 697.75,-36 691.75,-30 691.75,-24 691.75,-24 691.75,-12 691.75,-12 691.75,-6 697.75,0 703.75,0 703.75,0 733.75,0 733.75,0 739.75,0 745.75,-6 745.75,-12 745.75,-12 745.75,-24 745.75,-24 745.75,-30 739.75,-36 733.75,-36"/>
<text text-anchor="middle" x="718.75" y="-14.88" font-family="sans" font-size="10.00">all</text>
</g>
<!-- 1 -->
<g id="node2" class="node">
<title>1</title>
<path fill="none" stroke="#b6d856" stroke-width="2" d="M533.62,-180C533.62,-180 429.88,-180 429.88,-180 423.88,-180 417.88,-174 417.88,-168 417.88,-168 417.88,-156 417.88,-156 417.88,-150 423.88,-144 429.88,-144 429.88,-144 533.62,-144 533.62,-144 539.62,-144 545.62,-150 545.62,-156 545.62,-156 545.62,-168 545.62,-168 545.62,-174 539.62,-180 533.62,-180"/>
<text text-anchor="middle" x="481.75" y="-158.88" font-family="sans" font-size="10.00">step_4_python_pandas</text>
</g>
<!-- 1&#45;&gt;0 -->
<g id="edge1" class="edge">
<title>1&#45;&gt;0</title>
<path fill="none" stroke="grey" stroke-width="2" d="M465.34,-143.24C449.54,-123.95 430.4,-93.07 447.75,-72 476.46,-37.13 609.74,-24.88 678.09,-20.84"/>
<polygon fill="grey" stroke="grey" stroke-width="2" points="678.02,-24.35 687.82,-20.3 677.64,-17.36 678.02,-24.35"/>
</g>
<!-- 14 -->
<g id="node15" class="node">
<title>14</title>
<path fill="none" stroke="#d85656" stroke-width="2" d="M602.62,-108C602.62,-108 468.88,-108 468.88,-108 462.88,-108 456.88,-102 456.88,-96 456.88,-96 456.88,-84 456.88,-84 456.88,-78 462.88,-72 468.88,-72 468.88,-72 602.62,-72 602.62,-72 608.62,-72 614.62,-78 614.62,-84 614.62,-84 614.62,-96 614.62,-96 614.62,-102 608.62,-108 602.62,-108"/>
<text text-anchor="middle" x="535.75" y="-86.88" font-family="sans" font-size="10.00">results_main_input_validator</text>
</g>
<!-- 1&#45;&gt;14 -->
<g id="edge24" class="edge">
<title>1&#45;&gt;14</title>
<path fill="none" stroke="grey" stroke-width="2" d="M495.38,-143.34C501.02,-136.01 507.72,-127.34 514.01,-119.18"/>
<polygon fill="grey" stroke="grey" stroke-width="2" points="516.75,-121.35 520.09,-111.3 511.21,-117.08 516.75,-121.35"/>
</g>
<!-- 15 -->
<g id="node16" class="node">
<title>15</title>
<path fill="none" stroke="#97d856" stroke-width="2" d="M716.88,-108C716.88,-108 644.62,-108 644.62,-108 638.62,-108 632.62,-102 632.62,-96 632.62,-96 632.62,-84 632.62,-84 632.62,-78 638.62,-72 644.62,-72 644.62,-72 716.88,-72 716.88,-72 722.88,-72 728.88,-78 728.88,-84 728.88,-84 728.88,-96 728.88,-96 728.88,-102 722.88,-108 716.88,-108"/>
<text text-anchor="middle" x="680.75" y="-86.88" font-family="sans" font-size="10.00">terminate_spark</text>
</g>
<!-- 1&#45;&gt;15 -->
<g id="edge25" class="edge">
<title>1&#45;&gt;15</title>
<path fill="none" stroke="grey" stroke-width="2" d="M532.74,-143.06C559.32,-133.71 592.02,-122.21 619.92,-112.4"/>
<polygon fill="grey" stroke="grey" stroke-width="2" points="620.82,-115.79 629.1,-109.17 618.5,-109.19 620.82,-115.79"/>
</g>
<!-- 2 -->
<g id="node3" class="node">
<title>2</title>
<path fill="none" stroke="#5673d8" stroke-width="2" d="M357.12,-324C357.12,-324 94.38,-324 94.38,-324 88.38,-324 82.38,-318 82.38,-312 82.38,-312 82.38,-300 82.38,-300 82.38,-294 88.38,-288 94.38,-288 94.38,-288 357.12,-288 357.12,-288 363.12,-288 369.12,-294 369.12,-300 369.12,-300 369.12,-312 369.12,-312 369.12,-318 363.12,-324 357.12,-324"/>
<text text-anchor="middle" x="225.75" y="-302.88" font-family="sans" font-size="10.00">aggregate_step_3_python_pandas_step_3_main_output</text>
</g>
<!-- 2&#45;&gt;1 -->
<g id="edge7" class="edge">
<title>2&#45;&gt;1</title>
<path fill="none" stroke="grey" stroke-width="2" d="M169.13,-287.08C152.91,-279.03 137.11,-267.7 127.75,-252 119.56,-238.26 117.31,-228.12 127.75,-216 162.71,-175.42 311.12,-165.46 404.32,-163.28"/>
<polygon fill="grey" stroke="grey" stroke-width="2" points="404.14,-166.79 414.06,-163.08 404,-159.79 404.14,-166.79"/>
</g>
<!-- 13 -->
<g id="node14" class="node">
<title>13</title>
<path fill="none" stroke="#ced856" stroke-width="2" d="M398.75,-252C398.75,-252 148.75,-252 148.75,-252 142.75,-252 136.75,-246 136.75,-240 136.75,-240 136.75,-228 136.75,-228 136.75,-222 142.75,-216 148.75,-216 148.75,-216 398.75,-216 398.75,-216 404.75,-216 410.75,-222 410.75,-228 410.75,-228 410.75,-240 410.75,-240 410.75,-246 404.75,-252 398.75,-252"/>
<text text-anchor="middle" x="273.75" y="-230.88" font-family="sans" font-size="10.00">step_4_python_pandas_step_4_main_input_validator</text>
</g>
<!-- 2&#45;&gt;13 -->
<g id="edge23" class="edge">
<title>2&#45;&gt;13</title>
<path fill="none" stroke="grey" stroke-width="2" d="M237.86,-287.34C242.83,-280.1 248.7,-271.53 254.24,-263.45"/>
<polygon fill="grey" stroke="grey" stroke-width="2" points="256.99,-265.62 259.76,-255.4 251.22,-261.67 256.99,-265.62"/>
</g>
<!-- 3 -->
<g id="node4" class="node">
<title>3</title>
<path fill="none" stroke="#56d8d0" stroke-width="2" d="M339.5,-396C339.5,-396 112,-396 112,-396 106,-396 100,-390 100,-384 100,-384 100,-372 100,-372 100,-366 106,-360 112,-360 112,-360 339.5,-360 339.5,-360 345.5,-360 351.5,-366 351.5,-372 351.5,-372 351.5,-384 351.5,-384 351.5,-390 345.5,-396 339.5,-396"/>
<text text-anchor="middle" x="225.75" y="-374.88" font-family="sans" font-size="10.00">split_step_3_python_pandas_step_3_main_input</text>
</g>
<!-- 3&#45;&gt;2 -->
<g id="edge10" class="edge">
<title>3&#45;&gt;2</title>
<path fill="none" stroke="grey" stroke-width="2" d="M225.75,-359.34C225.75,-352.75 225.75,-345.08 225.75,-337.67"/>
<polygon fill="grey" stroke="grey" stroke-width="2" points="229.25,-337.93 225.75,-327.93 222.25,-337.93 229.25,-337.93"/>
</g>
<!-- 4 -->
<g id="node5" class="node">
<title>4</title>
<path fill="none" stroke="#d88d56" stroke-width="2" d="M405.5,-540C405.5,-540 298,-540 298,-540 292,-540 286,-534 286,-528 286,-528 286,-516 286,-516 286,-510 292,-504 298,-504 298,-504 405.5,-504 405.5,-504 411.5,-504 417.5,-510 417.5,-516 417.5,-516 417.5,-528 417.5,-528 417.5,-534 411.5,-540 405.5,-540"/>
<text text-anchor="middle" x="351.75" y="-518.88" font-family="sans" font-size="10.00">step_2_python_pyspark</text>
</g>
<!-- 4&#45;&gt;3 -->
<g id="edge11" class="edge">
<title>4&#45;&gt;3</title>
<path fill="none" stroke="grey" stroke-width="2" d="M285.19,-510.16C260.72,-502.6 235.42,-489.77 220.75,-468 209.26,-450.96 211.04,-427.66 215.41,-409.17"/>
<polygon fill="grey" stroke="grey" stroke-width="2" points="218.75,-410.2 218.08,-399.63 212.01,-408.32 218.75,-410.2"/>
</g>
<!-- 11 -->
<g id="node12" class="node">
<title>11</title>
<path fill="none" stroke="#61d856" stroke-width="2" d="M491.75,-468C491.75,-468 241.75,-468 241.75,-468 235.75,-468 229.75,-462 229.75,-456 229.75,-456 229.75,-444 229.75,-444 229.75,-438 235.75,-432 241.75,-432 241.75,-432 491.75,-432 491.75,-432 497.75,-432 503.75,-438 503.75,-444 503.75,-444 503.75,-456 503.75,-456 503.75,-462 497.75,-468 491.75,-468"/>
<text text-anchor="middle" x="366.75" y="-446.88" font-family="sans" font-size="10.00">step_3_python_pandas_step_3_main_input_validator</text>
</g>
<!-- 4&#45;&gt;11 -->
<g id="edge22" class="edge">
<title>4&#45;&gt;11</title>
<path fill="none" stroke="grey" stroke-width="2" d="M355.54,-503.34C356.96,-496.67 358.63,-488.89 360.24,-481.39"/>
<polygon fill="grey" stroke="grey" stroke-width="2" points="363.61,-482.37 362.28,-471.86 356.76,-480.91 363.61,-482.37"/>
</g>
<!-- 5 -->
<g id="node6" class="node">
<title>5</title>
<path fill="none" stroke="#56c1d8" stroke-width="2" d="M118.38,-684C118.38,-684 85.12,-684 85.12,-684 79.12,-684 73.12,-678 73.12,-672 73.12,-672 73.12,-660 73.12,-660 73.12,-654 79.12,-648 85.12,-648 85.12,-648 118.38,-648 118.38,-648 124.38,-648 130.38,-654 130.38,-660 130.38,-660 130.38,-672 130.38,-672 130.38,-678 124.38,-684 118.38,-684"/>
<text text-anchor="middle" x="101.75" y="-662.88" font-family="sans" font-size="10.00">step_1_r</text>
</g>
<!-- 5&#45;&gt;4 -->
<g id="edge13" class="edge">
<title>5&#45;&gt;4</title>
<path fill="none" stroke="grey" stroke-width="2" d="M72.21,-649.16C58.75,-640.2 44.18,-627.65 36.75,-612 29.89,-597.55 26.42,-588.22 36.75,-576 66.32,-541.03 188.86,-529.12 272.09,-525.08"/>
<polygon fill="grey" stroke="grey" stroke-width="2" points="272.23,-528.57 282.06,-524.63 271.92,-521.58 272.23,-528.57"/>
</g>
<!-- 7 -->
<g id="node8" class="node">
<title>7</title>
<path fill="none" stroke="#d8c356" stroke-width="2" d="M311.62,-612C311.62,-612 57.88,-612 57.88,-612 51.88,-612 45.88,-606 45.88,-600 45.88,-600 45.88,-588 45.88,-588 45.88,-582 51.88,-576 57.88,-576 57.88,-576 311.62,-576 311.62,-576 317.62,-576 323.62,-582 323.62,-588 323.62,-588 323.62,-600 323.62,-600 323.62,-606 317.62,-612 311.62,-612"/>
<text text-anchor="middle" x="184.75" y="-590.88" font-family="sans" font-size="10.00">step_2_python_pyspark_step_2_main_input_validator</text>
</g>
<!-- 5&#45;&gt;7 -->
<g id="edge19" class="edge">
<title>5&#45;&gt;7</title>
<path fill="none" stroke="grey" stroke-width="2" d="M122.69,-647.34C132.06,-639.44 143.29,-629.96 153.61,-621.26"/>
<polygon fill="grey" stroke="grey" stroke-width="2" points="155.82,-623.98 161.21,-614.85 151.31,-618.62 155.82,-623.98"/>
</g>
<!-- 6 -->
<g id="node7" class="node">
<title>6</title>
<path fill="none" stroke="#56d89a" stroke-width="2" d="M191.5,-756C191.5,-756 12,-756 12,-756 6,-756 0,-750 0,-744 0,-744 0,-732 0,-732 0,-726 6,-720 12,-720 12,-720 191.5,-720 191.5,-720 197.5,-720 203.5,-726 203.5,-732 203.5,-732 203.5,-744 203.5,-744 203.5,-750 197.5,-756 191.5,-756"/>
<text text-anchor="middle" x="101.75" y="-734.88" font-family="sans" font-size="10.00">step_1_r_step_1_main_input_validator</text>
</g>
<!-- 6&#45;&gt;5 -->
<g id="edge18" class="edge">
<title>6&#45;&gt;5</title>
<path fill="none" stroke="grey" stroke-width="2" d="M101.75,-719.34C101.75,-712.75 101.75,-705.08 101.75,-697.67"/>
<polygon fill="grey" stroke="grey" stroke-width="2" points="105.25,-697.93 101.75,-687.93 98.25,-697.93 105.25,-697.93"/>
</g>
<!-- 7&#45;&gt;4 -->
<g id="edge14" class="edge">
<title>7&#45;&gt;4</title>
<path fill="none" stroke="grey" stroke-width="2" d="M227.32,-575.15C248.54,-566.26 274.44,-555.41 297.1,-545.91"/>
<polygon fill="grey" stroke="grey" stroke-width="2" points="298.3,-549.2 306.17,-542.1 295.6,-542.74 298.3,-549.2"/>
</g>
<!-- 8 -->
<g id="node9" class="node">
<title>8</title>
<path fill="none" stroke="#d8ac56" stroke-width="2" d="M493.88,-612C493.88,-612 391.62,-612 391.62,-612 385.62,-612 379.62,-606 379.62,-600 379.62,-600 379.62,-588 379.62,-588 379.62,-582 385.62,-576 391.62,-576 391.62,-576 493.88,-576 493.88,-576 499.88,-576 505.88,-582 505.88,-588 505.88,-588 505.88,-600 505.88,-600 505.88,-606 499.88,-612 493.88,-612"/>
<text text-anchor="middle" x="442.75" y="-597.25" font-family="sans" font-size="10.00">wait_for_spark_worker</text>
<text text-anchor="middle" x="442.75" y="-584.5" font-family="sans" font-size="10.00">scatteritem: 1&#45;of&#45;2</text>
</g>
<!-- 8&#45;&gt;4 -->
<g id="edge15" class="edge">
<title>8&#45;&gt;4</title>
<path fill="none" stroke="grey" stroke-width="2" d="M419.79,-575.34C409.31,-567.27 396.69,-557.57 385.18,-548.72"/>
<polygon fill="grey" stroke="grey" stroke-width="2" points="387.48,-546.07 377.42,-542.75 383.21,-551.62 387.48,-546.07"/>
</g>
<!-- 9 -->
<g id="node10" class="node">
<title>9</title>
<path fill="none" stroke="#80d856" stroke-width="2" d="M683.62,-684C683.62,-684 579.88,-684 579.88,-684 573.88,-684 567.88,-678 567.88,-672 567.88,-672 567.88,-660 567.88,-660 567.88,-654 573.88,-648 579.88,-648 579.88,-648 683.62,-648 683.62,-648 689.62,-648 695.62,-654 695.62,-660 695.62,-660 695.62,-672 695.62,-672 695.62,-678 689.62,-684 683.62,-684"/>
<text text-anchor="middle" x="631.75" y="-662.88" font-family="sans" font-size="10.00">wait_for_spark_master</text>
</g>
<!-- 9&#45;&gt;4 -->
<g id="edge17" class="edge">
<title>9&#45;&gt;4</title>
<path fill="none" stroke="grey" stroke-width="2" d="M567.15,-659.9C499.06,-653.18 397.94,-638.92 370.75,-612 355.57,-596.97 351.13,-573 350.31,-553.72"/>
<polygon fill="grey" stroke="grey" stroke-width="2" points="353.81,-553.71 350.27,-543.73 346.81,-553.74 353.81,-553.71"/>
</g>
<!-- 9&#45;&gt;8 -->
<g id="edge20" class="edge">
<title>9&#45;&gt;8</title>
<path fill="none" stroke="grey" stroke-width="2" d="M583.57,-647.15C559.11,-638.1 529.16,-627.01 503.18,-617.38"/>
<polygon fill="grey" stroke="grey" stroke-width="2" points="504.6,-614.18 494.01,-613.99 502.17,-620.74 504.6,-614.18"/>
</g>
<!-- 10 -->
<g id="node11" class="node">
<title>10</title>
<path fill="none" stroke="#d8ac56" stroke-width="2" d="M637.88,-612C637.88,-612 535.62,-612 535.62,-612 529.62,-612 523.62,-606 523.62,-600 523.62,-600 523.62,-588 523.62,-588 523.62,-582 529.62,-576 535.62,-576 535.62,-576 637.88,-576 637.88,-576 643.88,-576 649.88,-582 649.88,-588 649.88,-588 649.88,-600 649.88,-600 649.88,-606 643.88,-612 637.88,-612"/>
<text text-anchor="middle" x="586.75" y="-597.25" font-family="sans" font-size="10.00">wait_for_spark_worker</text>
<text text-anchor="middle" x="586.75" y="-584.5" font-family="sans" font-size="10.00">scatteritem: 2&#45;of&#45;2</text>
</g>
<!-- 9&#45;&gt;10 -->
<g id="edge21" class="edge">
<title>9&#45;&gt;10</title>
<path fill="none" stroke="grey" stroke-width="2" d="M620.39,-647.34C615.79,-640.18 610.36,-631.73 605.22,-623.73"/>
<polygon fill="grey" stroke="grey" stroke-width="2" points="608.25,-621.97 599.9,-615.45 602.36,-625.75 608.25,-621.97"/>
</g>
<!-- 17 -->
<g id="node18" class="node">
<title>17</title>
<path fill="none" stroke="#56d882" stroke-width="2" d="M724.25,-540C724.25,-540 639.25,-540 639.25,-540 633.25,-540 627.25,-534 627.25,-528 627.25,-528 627.25,-516 627.25,-516 627.25,-510 633.25,-504 639.25,-504 639.25,-504 724.25,-504 724.25,-504 730.25,-504 736.25,-510 736.25,-516 736.25,-516 736.25,-528 736.25,-528 736.25,-534 730.25,-540 724.25,-540"/>
<text text-anchor="middle" x="681.75" y="-525.25" font-family="sans" font-size="10.00">start_spark_worker</text>
<text text-anchor="middle" x="681.75" y="-512.5" font-family="sans" font-size="10.00">scatteritem: 1&#45;of&#45;2</text>
</g>
<!-- 9&#45;&gt;17 -->
<g id="edge26" class="edge">
<title>9&#45;&gt;17</title>
<path fill="none" stroke="grey" stroke-width="2" d="M642,-647.29C647.53,-637.2 654.14,-624.17 658.75,-612 665.97,-592.95 671.71,-570.76 675.65,-553.31"/>
<polygon fill="grey" stroke="grey" stroke-width="2" points="679.03,-554.22 677.72,-543.7 672.19,-552.74 679.03,-554.22"/>
</g>
<!-- 18 -->
<g id="node19" class="node">
<title>18</title>
<path fill="none" stroke="#56d863" stroke-width="2" d="M774,-612C774,-612 717.5,-612 717.5,-612 711.5,-612 705.5,-606 705.5,-600 705.5,-600 705.5,-588 705.5,-588 705.5,-582 711.5,-576 717.5,-576 717.5,-576 774,-576 774,-576 780,-576 786,-582 786,-588 786,-588 786,-600 786,-600 786,-606 780,-612 774,-612"/>
<text text-anchor="middle" x="745.75" y="-590.88" font-family="sans" font-size="10.00">split_workers</text>
</g>
<!-- 9&#45;&gt;18 -->
<g id="edge28" class="edge">
<title>9&#45;&gt;18</title>
<path fill="none" stroke="grey" stroke-width="2" d="M660.81,-647.15C674.48,-638.76 690.99,-628.62 705.81,-619.52"/>
<polygon fill="grey" stroke="grey" stroke-width="2" points="707.47,-622.61 714.16,-614.4 703.81,-616.65 707.47,-622.61"/>
</g>
<!-- 19 -->
<g id="node20" class="node">
<title>19</title>
<path fill="none" stroke="#56d882" stroke-width="2" d="M851.25,-540C851.25,-540 766.25,-540 766.25,-540 760.25,-540 754.25,-534 754.25,-528 754.25,-528 754.25,-516 754.25,-516 754.25,-510 760.25,-504 766.25,-504 766.25,-504 851.25,-504 851.25,-504 857.25,-504 863.25,-510 863.25,-516 863.25,-516 863.25,-528 863.25,-528 863.25,-534 857.25,-540 851.25,-540"/>
<text text-anchor="middle" x="808.75" y="-525.25" font-family="sans" font-size="10.00">start_spark_worker</text>
<text text-anchor="middle" x="808.75" y="-512.5" font-family="sans" font-size="10.00">scatteritem: 2&#45;of&#45;2</text>
</g>
<!-- 9&#45;&gt;19 -->
<g id="edge29" class="edge">
<title>9&#45;&gt;19</title>
<path fill="none" stroke="grey" stroke-width="2" d="M696.34,-659.95C730.55,-653.81 770.42,-640.53 794.75,-612 808.31,-596.1 811.53,-572.57 811.51,-553.69"/>
<polygon fill="grey" stroke="grey" stroke-width="2" points="815.02,-553.83 811.14,-543.97 808.02,-554.09 815.02,-553.83"/>
</g>
<!-- 10&#45;&gt;4 -->
<g id="edge16" class="edge">
<title>10&#45;&gt;4</title>
<path fill="none" stroke="grey" stroke-width="2" d="M526.54,-575.06C495.31,-565.76 456.92,-554.33 424.09,-544.55"/>
<polygon fill="grey" stroke="grey" stroke-width="2" points="425.29,-541.25 414.71,-541.75 423.29,-547.96 425.29,-541.25"/>
</g>
<!-- 11&#45;&gt;3 -->
<g id="edge12" class="edge">
<title>11&#45;&gt;3</title>
<path fill="none" stroke="grey" stroke-width="2" d="M330.8,-431.15C313.32,-422.47 292.07,-411.92 273.27,-402.59"/>
<polygon fill="grey" stroke="grey" stroke-width="2" points="274.85,-399.47 264.34,-398.16 271.74,-405.74 274.85,-399.47"/>
</g>
<!-- 12 -->
<g id="node13" class="node">
<title>12</title>
<path fill="none" stroke="#56a9d8" stroke-width="2" d="M716.5,-252C716.5,-252 441,-252 441,-252 435,-252 429,-246 429,-240 429,-240 429,-228 429,-228 429,-222 435,-216 441,-216 441,-216 716.5,-216 716.5,-216 722.5,-216 728.5,-222 728.5,-228 728.5,-228 728.5,-240 728.5,-240 728.5,-246 722.5,-252 716.5,-252"/>
<text text-anchor="middle" x="578.75" y="-230.88" font-family="sans" font-size="10.00">step_4_python_pandas_step_4_secondary_input_validator</text>
</g>
<!-- 12&#45;&gt;1 -->
<g id="edge8" class="edge">
<title>12&#45;&gt;1</title>
<path fill="none" stroke="grey" stroke-width="2" d="M554.02,-215.15C542.73,-207.01 529.16,-197.22 516.85,-188.33"/>
<polygon fill="grey" stroke="grey" stroke-width="2" points="519.04,-185.6 508.89,-182.58 514.95,-191.27 519.04,-185.6"/>
</g>
<!-- 13&#45;&gt;1 -->
<g id="edge9" class="edge">
<title>13&#45;&gt;1</title>
<path fill="none" stroke="grey" stroke-width="2" d="M327.05,-215.06C354.32,-205.88 387.76,-194.63 416.57,-184.94"/>
<polygon fill="grey" stroke="grey" stroke-width="2" points="417.36,-188.36 425.72,-181.85 415.13,-181.73 417.36,-188.36"/>
</g>
<!-- 14&#45;&gt;0 -->
<g id="edge2" class="edge">
<title>14&#45;&gt;0</title>
<path fill="none" stroke="grey" stroke-width="2" d="M582.4,-71.15C612.29,-59.72 650.66,-45.05 679.08,-34.18"/>
<polygon fill="grey" stroke="grey" stroke-width="2" points="680.06,-37.55 688.15,-30.7 677.56,-31.01 680.06,-37.55"/>
</g>
<!-- 15&#45;&gt;0 -->
<g id="edge3" class="edge">
<title>15&#45;&gt;0</title>
<path fill="none" stroke="grey" stroke-width="2" d="M690.34,-71.34C694.14,-64.34 698.6,-56.12 702.86,-48.28"/>
<polygon fill="grey" stroke="grey" stroke-width="2" points="705.89,-50.02 707.59,-39.56 699.74,-46.68 705.89,-50.02"/>
</g>
<!-- 16 -->
<g id="node17" class="node">
<title>16</title>
<path fill="none" stroke="#56d8b9" stroke-width="2" d="M921,-108C921,-108 834.5,-108 834.5,-108 828.5,-108 822.5,-102 822.5,-96 822.5,-96 822.5,-84 822.5,-84 822.5,-78 828.5,-72 834.5,-72 834.5,-72 921,-72 921,-72 927,-72 933,-78 933,-84 933,-84 933,-96 933,-96 933,-102 927,-108 921,-108"/>
<text text-anchor="middle" x="877.75" y="-86.88" font-family="sans" font-size="10.00">start_spark_master</text>
</g>
<!-- 16&#45;&gt;0 -->
<g id="edge4" class="edge">
<title>16&#45;&gt;0</title>
<path fill="none" stroke="grey" stroke-width="2" d="M837.22,-71.15C813.08,-60.53 782.59,-47.11 758.58,-36.54"/>
<polygon fill="grey" stroke="grey" stroke-width="2" points="760.02,-33.35 749.46,-32.52 757.2,-39.75 760.02,-33.35"/>
</g>
<!-- 17&#45;&gt;0 -->
<g id="edge5" class="edge">
<title>17&#45;&gt;0</title>
<path fill="none" stroke="grey" stroke-width="2" d="M698.39,-503.31C720.49,-477.89 756.75,-428.63 756.75,-379 756.75,-379 756.75,-379 756.75,-161 756.75,-121.16 742.62,-77.11 731.6,-48.8"/>
<polygon fill="grey" stroke="grey" stroke-width="2" points="734.94,-47.73 727.94,-39.77 728.45,-50.36 734.94,-47.73"/>
</g>
<!-- 18&#45;&gt;17 -->
<g id="edge27" class="edge">
<title>18&#45;&gt;17</title>
<path fill="none" stroke="grey" stroke-width="2" d="M729.6,-575.34C722.68,-567.77 714.44,-558.75 706.76,-550.35"/>
<polygon fill="grey" stroke="grey" stroke-width="2" points="709.49,-548.15 700.16,-543.14 704.32,-552.88 709.49,-548.15"/>
</g>
<!-- 18&#45;&gt;19 -->
<g id="edge30" class="edge">
<title>18&#45;&gt;19</title>
<path fill="none" stroke="grey" stroke-width="2" d="M761.65,-575.34C768.46,-567.77 776.57,-558.75 784.13,-550.35"/>
<polygon fill="grey" stroke="grey" stroke-width="2" points="786.53,-552.93 790.61,-543.15 781.32,-548.24 786.53,-552.93"/>
</g>
<!-- 19&#45;&gt;0 -->
<g id="edge6" class="edge">
<title>19&#45;&gt;0</title>
<path fill="none" stroke="grey" stroke-width="2" d="M805.85,-503.12C801.75,-476.26 794.75,-423.84 794.75,-379 794.75,-379 794.75,-379 794.75,-161 794.75,-117.06 766.11,-73.56 744,-46.52"/>
<polygon fill="grey" stroke="grey" stroke-width="2" points="746.72,-44.31 737.58,-38.96 741.39,-48.85 746.72,-44.31"/>
</g>
</g>
</svg>
