<?xml version="1.0" encoding="UTF-8" standalone="no"?>
<!DOCTYPE svg PUBLIC "-//W3C//DTD SVG 1.1//EN"
 "http://www.w3.org/Graphics/SVG/1.1/DTD/svg11.dtd">
<!-- Generated by graphviz version 12.2.1 (20250203.1708)
 -->
<!-- Title: snakemake_dag Pages: 1 -->
<svg width="749pt" height="764pt"
 viewBox="0.00 0.00 749.25 764.00" xmlns="http://www.w3.org/2000/svg" xmlns:xlink="http://www.w3.org/1999/xlink">
<g id="graph0" class="graph" transform="scale(1 1) rotate(0) translate(4 760)">
<title>snakemake_dag</title>
<polygon fill="white" stroke="none" points="-4,4 -4,-760 745.25,-760 745.25,4 -4,4"/>
<!-- 0 -->
<g id="node1" class="node">
<title>0</title>
<path fill="none" stroke="#56d8b9" stroke-width="2" d="M542,-36C542,-36 512,-36 512,-36 506,-36 500,-30 500,-24 500,-24 500,-12 500,-12 500,-6 506,0 512,0 512,0 542,0 542,0 548,0 554,-6 554,-12 554,-12 554,-24 554,-24 554,-30 548,-36 542,-36"/>
<text text-anchor="middle" x="527" y="-14.88" font-family="sans" font-size="10.00">all</text>
</g>
<!-- 1 -->
<g id="node2" class="node">
<title>1</title>
<path fill="none" stroke="#61d856" stroke-width="2" d="M344.62,-180C344.62,-180 311.38,-180 311.38,-180 305.38,-180 299.38,-174 299.38,-168 299.38,-168 299.38,-156 299.38,-156 299.38,-150 305.38,-144 311.38,-144 311.38,-144 344.62,-144 344.62,-144 350.62,-144 356.62,-150 356.62,-156 356.62,-156 356.62,-168 356.62,-168 356.62,-174 350.62,-180 344.62,-180"/>
<text text-anchor="middle" x="328" y="-158.88" font-family="sans" font-size="10.00">step_4_r</text>
</g>
<!-- 1&#45;&gt;0 -->
<g id="edge1" class="edge">
<title>1&#45;&gt;0</title>
<path fill="none" stroke="grey" stroke-width="2" d="M311.71,-143.34C296.02,-124.14 276.98,-93.33 294,-72 317.64,-42.38 426.19,-28.05 486.43,-22.26"/>
<polygon fill="grey" stroke="grey" stroke-width="2" points="486.56,-25.77 496.2,-21.37 485.92,-18.8 486.56,-25.77"/>
</g>
<!-- 13 -->
<g id="node14" class="node">
<title>13</title>
<path fill="none" stroke="#80d856" stroke-width="2" d="M448.88,-108C448.88,-108 315.12,-108 315.12,-108 309.12,-108 303.12,-102 303.12,-96 303.12,-96 303.12,-84 303.12,-84 303.12,-78 309.12,-72 315.12,-72 315.12,-72 448.88,-72 448.88,-72 454.88,-72 460.88,-78 460.88,-84 460.88,-84 460.88,-96 460.88,-96 460.88,-102 454.88,-108 448.88,-108"/>
<text text-anchor="middle" x="382" y="-86.88" font-family="sans" font-size="10.00">results_main_input_validator</text>
</g>
<!-- 1&#45;&gt;13 -->
<g id="edge21" class="edge">
<title>1&#45;&gt;13</title>
<path fill="none" stroke="grey" stroke-width="2" d="M341.63,-143.34C347.27,-136.01 353.97,-127.34 360.26,-119.18"/>
<polygon fill="grey" stroke="grey" stroke-width="2" points="363,-121.35 366.34,-111.3 357.46,-117.08 363,-121.35"/>
</g>
<!-- 14 -->
<g id="node15" class="node">
<title>14</title>
<path fill="none" stroke="#d8c356" stroke-width="2" d="M563.12,-108C563.12,-108 490.88,-108 490.88,-108 484.88,-108 478.88,-102 478.88,-96 478.88,-96 478.88,-84 478.88,-84 478.88,-78 484.88,-72 490.88,-72 490.88,-72 563.12,-72 563.12,-72 569.12,-72 575.12,-78 575.12,-84 575.12,-84 575.12,-96 575.12,-96 575.12,-102 569.12,-108 563.12,-108"/>
<text text-anchor="middle" x="527" y="-86.88" font-family="sans" font-size="10.00">terminate_spark</text>
</g>
<!-- 1&#45;&gt;14 -->
<g id="edge22" class="edge">
<title>1&#45;&gt;14</title>
<path fill="none" stroke="grey" stroke-width="2" d="M357.36,-150.67C385.92,-140.63 430.16,-125.06 466.3,-112.35"/>
<polygon fill="grey" stroke="grey" stroke-width="2" points="467.09,-115.78 475.36,-109.16 464.77,-109.18 467.09,-115.78"/>
</g>
<!-- 2 -->
<g id="node3" class="node">
<title>2</title>
<path fill="none" stroke="#56c1d8" stroke-width="2" d="M292.38,-324C292.38,-324 29.62,-324 29.62,-324 23.62,-324 17.62,-318 17.62,-312 17.62,-312 17.62,-300 17.62,-300 17.62,-294 23.62,-288 29.62,-288 29.62,-288 292.38,-288 292.38,-288 298.38,-288 304.38,-294 304.38,-300 304.38,-300 304.38,-312 304.38,-312 304.38,-318 298.38,-324 292.38,-324"/>
<text text-anchor="middle" x="161" y="-302.88" font-family="sans" font-size="10.00">aggregate_step_3_python_pandas_step_3_main_output</text>
</g>
<!-- 2&#45;&gt;1 -->
<g id="edge6" class="edge">
<title>2&#45;&gt;1</title>
<path fill="none" stroke="grey" stroke-width="2" d="M140.29,-287.14C120.96,-268.31 97.54,-238.34 115,-216 135.8,-189.39 229.95,-174.22 285.87,-167.4"/>
<polygon fill="grey" stroke="grey" stroke-width="2" points="286,-170.91 295.52,-166.27 285.18,-163.96 286,-170.91"/>
</g>
<!-- 12 -->
<g id="node13" class="node">
<title>12</title>
<path fill="none" stroke="#d85656" stroke-width="2" d="M315.75,-252C315.75,-252 136.25,-252 136.25,-252 130.25,-252 124.25,-246 124.25,-240 124.25,-240 124.25,-228 124.25,-228 124.25,-222 130.25,-216 136.25,-216 136.25,-216 315.75,-216 315.75,-216 321.75,-216 327.75,-222 327.75,-228 327.75,-228 327.75,-240 327.75,-240 327.75,-246 321.75,-252 315.75,-252"/>
<text text-anchor="middle" x="226" y="-230.88" font-family="sans" font-size="10.00">step_4_r_step_4_main_input_validator</text>
</g>
<!-- 2&#45;&gt;12 -->
<g id="edge20" class="edge">
<title>2&#45;&gt;12</title>
<path fill="none" stroke="grey" stroke-width="2" d="M177.4,-287.34C184.43,-279.77 192.8,-270.75 200.6,-262.35"/>
<polygon fill="grey" stroke="grey" stroke-width="2" points="203.08,-264.83 207.32,-255.12 197.95,-260.07 203.08,-264.83"/>
</g>
<!-- 3 -->
<g id="node4" class="node">
<title>3</title>
<path fill="none" stroke="#b6d856" stroke-width="2" d="M274.75,-396C274.75,-396 47.25,-396 47.25,-396 41.25,-396 35.25,-390 35.25,-384 35.25,-384 35.25,-372 35.25,-372 35.25,-366 41.25,-360 47.25,-360 47.25,-360 274.75,-360 274.75,-360 280.75,-360 286.75,-366 286.75,-372 286.75,-372 286.75,-384 286.75,-384 286.75,-390 280.75,-396 274.75,-396"/>
<text text-anchor="middle" x="161" y="-374.88" font-family="sans" font-size="10.00">split_step_3_python_pandas_step_3_main_input</text>
</g>
<!-- 3&#45;&gt;2 -->
<g id="edge9" class="edge">
<title>3&#45;&gt;2</title>
<path fill="none" stroke="grey" stroke-width="2" d="M161,-359.34C161,-352.75 161,-345.08 161,-337.67"/>
<polygon fill="grey" stroke="grey" stroke-width="2" points="164.5,-337.93 161,-327.93 157.5,-337.93 164.5,-337.93"/>
</g>
<!-- 4 -->
<g id="node5" class="node">
<title>4</title>
<path fill="none" stroke="#56a9d8" stroke-width="2" d="M291.75,-540C291.75,-540 184.25,-540 184.25,-540 178.25,-540 172.25,-534 172.25,-528 172.25,-528 172.25,-516 172.25,-516 172.25,-510 178.25,-504 184.25,-504 184.25,-504 291.75,-504 291.75,-504 297.75,-504 303.75,-510 303.75,-516 303.75,-516 303.75,-528 303.75,-528 303.75,-534 297.75,-540 291.75,-540"/>
<text text-anchor="middle" x="238" y="-518.88" font-family="sans" font-size="10.00">step_2_python_pyspark</text>
</g>
<!-- 4&#45;&gt;3 -->
<g id="edge10" class="edge">
<title>4&#45;&gt;3</title>
<path fill="none" stroke="grey" stroke-width="2" d="M184.87,-503.22C168.88,-495.1 153.17,-483.69 144,-468 133.49,-450.01 138.41,-426.82 145.6,-408.61"/>
<polygon fill="grey" stroke="grey" stroke-width="2" points="148.69,-410.26 149.55,-399.7 142.3,-407.43 148.69,-410.26"/>
</g>
<!-- 10 -->
<g id="node11" class="node">
<title>10</title>
<path fill="none" stroke="#56d863" stroke-width="2" d="M415,-468C415,-468 165,-468 165,-468 159,-468 153,-462 153,-456 153,-456 153,-444 153,-444 153,-438 159,-432 165,-432 165,-432 415,-432 415,-432 421,-432 427,-438 427,-444 427,-444 427,-456 427,-456 427,-462 421,-468 415,-468"/>
<text text-anchor="middle" x="290" y="-446.88" font-family="sans" font-size="10.00">step_3_python_pandas_step_3_main_input_validator</text>
</g>
<!-- 4&#45;&gt;10 -->
<g id="edge19" class="edge">
<title>4&#45;&gt;10</title>
<path fill="none" stroke="grey" stroke-width="2" d="M251.12,-503.34C256.56,-496.01 263.01,-487.34 269.07,-479.18"/>
<polygon fill="grey" stroke="grey" stroke-width="2" points="271.74,-481.45 274.9,-471.33 266.12,-477.27 271.74,-481.45"/>
</g>
<!-- 5 -->
<g id="node6" class="node">
<title>5</title>
<path fill="none" stroke="#97d856" stroke-width="2" d="M188.88,-684C188.88,-684 85.12,-684 85.12,-684 79.12,-684 73.12,-678 73.12,-672 73.12,-672 73.12,-660 73.12,-660 73.12,-654 79.12,-648 85.12,-648 85.12,-648 188.88,-648 188.88,-648 194.88,-648 200.88,-654 200.88,-660 200.88,-660 200.88,-672 200.88,-672 200.88,-678 194.88,-684 188.88,-684"/>
<text text-anchor="middle" x="137" y="-662.88" font-family="sans" font-size="10.00">step_1_python_pandas</text>
</g>
<!-- 5&#45;&gt;4 -->
<g id="edge12" class="edge">
<title>5&#45;&gt;4</title>
<path fill="none" stroke="grey" stroke-width="2" d="M104.39,-647.06C91.84,-638.29 78.87,-626.47 72,-612 65.14,-597.55 62.56,-588.92 72,-576 92.01,-548.61 126.33,-535.05 158.59,-528.45"/>
<polygon fill="grey" stroke="grey" stroke-width="2" points="159.08,-531.92 168.31,-526.71 157.85,-525.03 159.08,-531.92"/>
</g>
<!-- 7 -->
<g id="node8" class="node">
<title>7</title>
<path fill="none" stroke="#568ad8" stroke-width="2" d="M346.88,-612C346.88,-612 93.12,-612 93.12,-612 87.12,-612 81.12,-606 81.12,-600 81.12,-600 81.12,-588 81.12,-588 81.12,-582 87.12,-576 93.12,-576 93.12,-576 346.88,-576 346.88,-576 352.88,-576 358.88,-582 358.88,-588 358.88,-588 358.88,-600 358.88,-600 358.88,-606 352.88,-612 346.88,-612"/>
<text text-anchor="middle" x="220" y="-590.88" font-family="sans" font-size="10.00">step_2_python_pyspark_step_2_main_input_validator</text>
</g>
<!-- 5&#45;&gt;7 -->
<g id="edge17" class="edge">
<title>5&#45;&gt;7</title>
<path fill="none" stroke="grey" stroke-width="2" d="M157.94,-647.34C167.31,-639.44 178.54,-629.96 188.86,-621.26"/>
<polygon fill="grey" stroke="grey" stroke-width="2" points="191.07,-623.98 196.46,-614.85 186.56,-618.62 191.07,-623.98"/>
</g>
<!-- 6 -->
<g id="node7" class="node">
<title>6</title>
<path fill="none" stroke="#d88d56" stroke-width="2" d="M262,-756C262,-756 12,-756 12,-756 6,-756 0,-750 0,-744 0,-744 0,-732 0,-732 0,-726 6,-720 12,-720 12,-720 262,-720 262,-720 268,-720 274,-726 274,-732 274,-732 274,-744 274,-744 274,-750 268,-756 262,-756"/>
<text text-anchor="middle" x="137" y="-734.88" font-family="sans" font-size="10.00">step_1_python_pandas_step_1_main_input_validator</text>
</g>
<!-- 6&#45;&gt;5 -->
<g id="edge16" class="edge">
<title>6&#45;&gt;5</title>
<path fill="none" stroke="grey" stroke-width="2" d="M137,-719.34C137,-712.75 137,-705.08 137,-697.67"/>
<polygon fill="grey" stroke="grey" stroke-width="2" points="140.5,-697.93 137,-687.93 133.5,-697.93 140.5,-697.93"/>
</g>
<!-- 7&#45;&gt;4 -->
<g id="edge13" class="edge">
<title>7&#45;&gt;4</title>
<path fill="none" stroke="grey" stroke-width="2" d="M224.54,-575.34C226.26,-568.67 228.26,-560.89 230.19,-553.39"/>
<polygon fill="grey" stroke="grey" stroke-width="2" points="233.54,-554.39 232.64,-543.83 226.76,-552.65 233.54,-554.39"/>
</g>
<!-- 8 -->
<g id="node9" class="node">
<title>8</title>
<path fill="none" stroke="#56d8d0" stroke-width="2" d="M529.12,-612C529.12,-612 426.88,-612 426.88,-612 420.88,-612 414.88,-606 414.88,-600 414.88,-600 414.88,-588 414.88,-588 414.88,-582 420.88,-576 426.88,-576 426.88,-576 529.12,-576 529.12,-576 535.12,-576 541.12,-582 541.12,-588 541.12,-588 541.12,-600 541.12,-600 541.12,-606 535.12,-612 529.12,-612"/>
<text text-anchor="middle" x="478" y="-597.25" font-family="sans" font-size="10.00">wait_for_spark_worker</text>
<text text-anchor="middle" x="478" y="-584.5" font-family="sans" font-size="10.00">scatteritem: 1&#45;of&#45;1</text>
</g>
<!-- 8&#45;&gt;4 -->
<g id="edge14" class="edge">
<title>8&#45;&gt;4</title>
<path fill="none" stroke="grey" stroke-width="2" d="M416.51,-575.06C384.47,-565.72 345.07,-554.23 311.44,-544.42"/>
<polygon fill="grey" stroke="grey" stroke-width="2" points="312.82,-541.18 302.24,-541.74 310.86,-547.9 312.82,-541.18"/>
</g>
<!-- 9 -->
<g id="node10" class="node">
<title>9</title>
<path fill="none" stroke="#d87556" stroke-width="2" d="M574.88,-684C574.88,-684 471.12,-684 471.12,-684 465.12,-684 459.12,-678 459.12,-672 459.12,-672 459.12,-660 459.12,-660 459.12,-654 465.12,-648 471.12,-648 471.12,-648 574.88,-648 574.88,-648 580.88,-648 586.88,-654 586.88,-660 586.88,-660 586.88,-672 586.88,-672 586.88,-678 580.88,-684 574.88,-684"/>
<text text-anchor="middle" x="523" y="-662.88" font-family="sans" font-size="10.00">wait_for_spark_master</text>
</g>
<!-- 9&#45;&gt;4 -->
<g id="edge15" class="edge">
<title>9&#45;&gt;4</title>
<path fill="none" stroke="grey" stroke-width="2" d="M473.84,-647.02C452.16,-638.03 426.91,-626.06 406,-612 386.69,-599.02 387.55,-588.61 368,-576 349.34,-563.97 327.49,-553.78 307.1,-545.66"/>
<polygon fill="grey" stroke="grey" stroke-width="2" points="308.37,-542.4 297.78,-542.08 305.86,-548.94 308.37,-542.4"/>
</g>
<!-- 9&#45;&gt;8 -->
<g id="edge18" class="edge">
<title>9&#45;&gt;8</title>
<path fill="none" stroke="grey" stroke-width="2" d="M511.64,-647.34C507.04,-640.18 501.61,-631.73 496.47,-623.73"/>
<polygon fill="grey" stroke="grey" stroke-width="2" points="499.5,-621.97 491.15,-615.45 493.61,-625.75 499.5,-621.97"/>
</g>
<!-- 16 -->
<g id="node17" class="node">
<title>16</title>
<path fill="none" stroke="#56d89a" stroke-width="2" d="M645.5,-540C645.5,-540 560.5,-540 560.5,-540 554.5,-540 548.5,-534 548.5,-528 548.5,-528 548.5,-516 548.5,-516 548.5,-510 554.5,-504 560.5,-504 560.5,-504 645.5,-504 645.5,-504 651.5,-504 657.5,-510 657.5,-516 657.5,-516 657.5,-528 657.5,-528 657.5,-534 651.5,-540 645.5,-540"/>
<text text-anchor="middle" x="603" y="-525.25" font-family="sans" font-size="10.00">start_spark_worker</text>
<text text-anchor="middle" x="603" y="-512.5" font-family="sans" font-size="10.00">scatteritem: 1&#45;of&#45;1</text>
</g>
<!-- 9&#45;&gt;16 -->
<g id="edge23" class="edge">
<title>9&#45;&gt;16</title>
<path fill="none" stroke="grey" stroke-width="2" d="M533.13,-647.02C546.6,-623.12 570.55,-580.59 586.61,-552.1"/>
<polygon fill="grey" stroke="grey" stroke-width="2" points="589.61,-553.91 591.46,-543.48 583.51,-550.47 589.61,-553.91"/>
</g>
<!-- 17 -->
<g id="node18" class="node">
<title>17</title>
<path fill="none" stroke="#56d882" stroke-width="2" d="M665.25,-612C665.25,-612 608.75,-612 608.75,-612 602.75,-612 596.75,-606 596.75,-600 596.75,-600 596.75,-588 596.75,-588 596.75,-582 602.75,-576 608.75,-576 608.75,-576 665.25,-576 665.25,-576 671.25,-576 677.25,-582 677.25,-588 677.25,-588 677.25,-600 677.25,-600 677.25,-606 671.25,-612 665.25,-612"/>
<text text-anchor="middle" x="637" y="-590.88" font-family="sans" font-size="10.00">split_workers</text>
</g>
<!-- 9&#45;&gt;17 -->
<g id="edge25" class="edge">
<title>9&#45;&gt;17</title>
<path fill="none" stroke="grey" stroke-width="2" d="M552.06,-647.15C565.73,-638.76 582.24,-628.62 597.06,-619.52"/>
<polygon fill="grey" stroke="grey" stroke-width="2" points="598.72,-622.61 605.41,-614.4 595.06,-616.65 598.72,-622.61"/>
</g>
<!-- 10&#45;&gt;3 -->
<g id="edge11" class="edge">
<title>10&#45;&gt;3</title>
<path fill="none" stroke="grey" stroke-width="2" d="M257.11,-431.15C241.34,-422.6 222.23,-412.22 205.21,-402.99"/>
<polygon fill="grey" stroke="grey" stroke-width="2" points="206.95,-399.95 196.49,-398.26 203.61,-406.1 206.95,-399.95"/>
</g>
<!-- 11 -->
<g id="node12" class="node">
<title>11</title>
<path fill="none" stroke="#d8ac56" stroke-width="2" d="M562.5,-252C562.5,-252 357.5,-252 357.5,-252 351.5,-252 345.5,-246 345.5,-240 345.5,-240 345.5,-228 345.5,-228 345.5,-222 351.5,-216 357.5,-216 357.5,-216 562.5,-216 562.5,-216 568.5,-216 574.5,-222 574.5,-228 574.5,-228 574.5,-240 574.5,-240 574.5,-246 568.5,-252 562.5,-252"/>
<text text-anchor="middle" x="460" y="-230.88" font-family="sans" font-size="10.00">step_4_r_step_4_secondary_input_validator</text>
</g>
<!-- 11&#45;&gt;1 -->
<g id="edge7" class="edge">
<title>11&#45;&gt;1</title>
<path fill="none" stroke="grey" stroke-width="2" d="M426.35,-215.15C408.85,-205.87 387.31,-194.45 368.86,-184.67"/>
<polygon fill="grey" stroke="grey" stroke-width="2" points="370.69,-181.68 360.22,-180.09 367.41,-187.86 370.69,-181.68"/>
</g>
<!-- 12&#45;&gt;1 -->
<g id="edge8" class="edge">
<title>12&#45;&gt;1</title>
<path fill="none" stroke="grey" stroke-width="2" d="M252,-215.15C263.99,-206.93 278.43,-197.02 291.49,-188.06"/>
<polygon fill="grey" stroke="grey" stroke-width="2" points="293.28,-191.07 299.55,-182.53 289.32,-185.3 293.28,-191.07"/>
</g>
<!-- 13&#45;&gt;0 -->
<g id="edge2" class="edge">
<title>13&#45;&gt;0</title>
<path fill="none" stroke="grey" stroke-width="2" d="M418.96,-71.15C439.96,-61.02 466.25,-48.33 487.63,-38.01"/>
<polygon fill="grey" stroke="grey" stroke-width="2" points="489.05,-41.21 496.53,-33.71 486.01,-34.9 489.05,-41.21"/>
</g>
<!-- 14&#45;&gt;0 -->
<g id="edge3" class="edge">
<title>14&#45;&gt;0</title>
<path fill="none" stroke="grey" stroke-width="2" d="M527,-71.34C527,-64.75 527,-57.08 527,-49.67"/>
<polygon fill="grey" stroke="grey" stroke-width="2" points="530.5,-49.93 527,-39.93 523.5,-49.93 530.5,-49.93"/>
</g>
<!-- 15 -->
<g id="node16" class="node">
<title>15</title>
<path fill="none" stroke="#5673d8" stroke-width="2" d="M729.25,-108C729.25,-108 642.75,-108 642.75,-108 636.75,-108 630.75,-102 630.75,-96 630.75,-96 630.75,-84 630.75,-84 630.75,-78 636.75,-72 642.75,-72 642.75,-72 729.25,-72 729.25,-72 735.25,-72 741.25,-78 741.25,-84 741.25,-84 741.25,-96 741.25,-96 741.25,-102 735.25,-108 729.25,-108"/>
<text text-anchor="middle" x="686" y="-86.88" font-family="sans" font-size="10.00">start_spark_master</text>
</g>
<!-- 15&#45;&gt;0 -->
<g id="edge4" class="edge">
<title>15&#45;&gt;0</title>
<path fill="none" stroke="grey" stroke-width="2" d="M645.47,-71.15C621.33,-60.53 590.84,-47.11 566.83,-36.54"/>
<polygon fill="grey" stroke="grey" stroke-width="2" points="568.27,-33.35 557.71,-32.52 565.45,-39.75 568.27,-33.35"/>
</g>
<!-- 16&#45;&gt;0 -->
<g id="edge5" class="edge">
<title>16&#45;&gt;0</title>
<path fill="none" stroke="grey" stroke-width="2" d="M603,-503.07C603,-476.13 603,-423.62 603,-379 603,-379 603,-379 603,-161 603,-120.55 603.96,-107.18 584,-72 578.44,-62.2 570.46,-53.16 562.22,-45.43"/>
<polygon fill="grey" stroke="grey" stroke-width="2" points="564.67,-42.92 554.84,-38.98 560.06,-48.19 564.67,-42.92"/>
</g>
<!-- 17&#45;&gt;16 -->
<g id="edge24" class="edge">
<title>17&#45;&gt;16</title>
<path fill="none" stroke="grey" stroke-width="2" d="M628.42,-575.34C625.06,-568.43 621.12,-560.31 617.36,-552.56"/>
<polygon fill="grey" stroke="grey" stroke-width="2" points="620.54,-551.09 613.02,-543.62 614.24,-554.15 620.54,-551.09"/>
</g>
</g>
</svg>
